<svg xmlns="http://www.w3.org/2000/svg" viewBox="0 0 199.5 199.5"><defs><style>.cls-3{fill:#c60000}.cls-4{fill:#fff}.cls-5{fill:#b7b1a9}.cls-6{fill:#eac311}.cls-7{fill:#5a5b52}</style></defs><g id="Calque_2" data-name="Calque 2"><g id="Layer_1" data-name="Layer 1"><path fill="#31ca72" d="M0 0h199.5v199.5H0z"/><path fill="#2ea05c" d="M199.5 98.42l-34.65-34.65-117.42 79.05 56.68 56.68h95.39V98.42z"/><path d="M63.22 66.5q-9.61 1.32-19.16 3.22 6.16 36.54 12.31 73.09 7.77-1.53 15.58-2.62z"/><path class="cls-3" d="M38.35 70.91a6.89 6.89 0 0 0-5.48 7.9q6 29.93 12.08 59.86c.73 3.51 3.75 5.76 6.78 5.11 1.55-.34 3.1-.66 4.64-1q-6.15-36.54-12.31-73.09-2.87.6-5.71 1.22z"/><path class="cls-4" d="M57.24 76.8c-3.2.52-6.38 1.08-9.57 1.69 0 .23.08.46.11.69 3.22-.62 6.37-1.18 9.56-1.68-.03-.24-.07-.5-.1-.7z"/><path class="cls-5" d="M57.43 78.19l-.09-.69c-3.19.51-6.38 1.06-9.56 1.68l.12.68q4.76-.86 9.53-1.67z"/><path class="cls-4" d="M42.21 80.3a3.31 3.31 0 0 0 4 2.47l-1.08-6.38a3.52 3.52 0 0 0-2.92 3.91z"/><path class="cls-5" d="M49.24 78.9a3.3 3.3 0 0 0-4.06-2.51l1.08 6.38a3.55 3.55 0 0 0 2.98-3.87z"/><path class="cls-4" d="M58.47 85.75q-4.68.75-9.35 1.64c0 .23.08.46.11.69q4.67-.89 9.33-1.64z"/><path class="cls-5" d="M58.66 87.13c0-.23-.06-.46-.1-.69q-4.66.75-9.33 1.64l.12.69c3.09-.59 6.2-1.14 9.31-1.64z"/><path class="cls-4" d="M43.78 89.18a3.28 3.28 0 0 0 4 2.49l-1.08-6.39a3.5 3.5 0 0 0-2.92 3.9z"/><path class="cls-5" d="M50.66 87.81a3.26 3.26 0 0 0-4-2.53l1.08 6.39a3.52 3.52 0 0 0 2.92-3.86z"/><path class="cls-4" d="M59.7 94.69q-4.58.74-9.13 1.61c0 .23.08.46.11.69q4.55-.87 9.11-1.61z"/><path class="cls-5" d="M59.89 96.07c0-.23-.06-.45-.1-.69q-4.56.74-9.11 1.61l.12.69q4.53-.87 9.09-1.61z"/><path class="cls-4" d="M45.36 98.05a3.23 3.23 0 0 0 3.9 2.51l-1.08-6.38a3.45 3.45 0 0 0-2.82 3.87z"/><path class="cls-5" d="M52.08 96.72a3.22 3.22 0 0 0-3.9-2.54l1.08 6.38a3.47 3.47 0 0 0 2.82-3.84z"/><path class="cls-4" d="M60.93 103.63c-3 .49-5.94 1-8.91 1.57l.12.7q4.43-.86 8.88-1.57z"/><path class="cls-5" d="M61.12 105c0-.23-.07-.46-.1-.69q-4.46.72-8.88 1.57c0 .22.07.45.11.68 2.95-.56 5.9-1.07 8.87-1.56z"/><path class="cls-4" d="M47 106.94a3.19 3.19 0 0 0 3.81 2.52l-1.08-6.39a3.4 3.4 0 0 0-2.73 3.87z"/><path class="cls-5" d="M53.49 105.64a3.16 3.16 0 0 0-3.81-2.57l1.08 6.39a3.41 3.41 0 0 0 2.73-3.82z"/><path class="cls-4" d="M62.15 112.58q-4.35.7-8.67 1.53c0 .23.07.46.11.69q4.32-.83 8.66-1.53c-.03-.27-.06-.46-.1-.69z"/><path class="cls-5" d="M62.35 114c0-.23-.07-.47-.1-.7q-4.34.7-8.66 1.53c0 .23.07.46.11.69q4.3-.85 8.65-1.52z"/><path class="cls-4" d="M48.53 115.82a3.14 3.14 0 0 0 3.73 2.53L51.18 112a3.35 3.35 0 0 0-2.65 3.82z"/><path class="cls-5" d="M54.91 114.55a3.13 3.13 0 0 0-3.73-2.55l1.08 6.38a3.36 3.36 0 0 0 2.65-3.83z"/><path class="cls-4" d="M63.38 121.53c-2.82.45-5.64 1-8.45 1.48 0 .24.07.47.11.69 2.81-.53 5.62-1 8.44-1.48-.04-.22-.07-.46-.1-.69z"/><path class="cls-5" d="M63.57 122.91l-.09-.69c-2.82.45-5.63 1-8.44 1.48 0 .23.07.46.11.69 2.85-.53 5.61-1.03 8.42-1.48z"/><path class="cls-4" d="M50.11 124.69a3.1 3.1 0 0 0 3.64 2.56c-.35-2.13-.71-4.25-1.07-6.38a3.3 3.3 0 0 0-2.57 3.82z"/><path class="cls-5" d="M56.33 123.46a3.08 3.08 0 0 0-3.65-2.59c.36 2.13.72 4.25 1.07 6.38a3.34 3.34 0 0 0 2.58-3.79z"/><path class="cls-4" d="M64.61 130.47c-2.75.44-5.5.92-8.23 1.45 0 .23.07.46.11.69 2.73-.52 5.47-1 8.22-1.45-.04-.23-.07-.46-.1-.69z"/><path class="cls-5" d="M64.8 131.85l-.09-.69c-2.75.44-5.49.93-8.22 1.45 0 .23.08.46.11.69 2.73-.52 5.46-1.01 8.2-1.45z"/><path class="cls-4" d="M51.69 133.57a3.07 3.07 0 0 0 3.56 2.58q-.53-3.19-1.07-6.39a3.27 3.27 0 0 0-2.49 3.81z"/><path class="cls-5" d="M57.74 132.37a3 3 0 0 0-3.56-2.61q.54 3.19 1.07 6.39a3.29 3.29 0 0 0 2.49-3.78z"/><path class="cls-3" d="M53.68 67.94q4.64 32.28 9.25 64.57c.73 4.88 4.93 8.21 9.41 7.61q7.51-1 15.07-1.63l-5.6-80q-11.07.85-22.08 2.51a6.9 6.9 0 0 0-6.05 6.94zM160.68 61.61q-11-1.76-22.08-2.78l-5.7 80q9.54.89 19.06 2.46c3.63.61 4.65-2.52 5-5.16l9.69-66.86a7 7 0 0 0-5.97-7.66z"/><path class="cls-6" d="M84.63 138.73l2.78-.24-5.6-80-3.47.29q3.15 39.97 6.29 79.95z"/><path d="M87.41 138.49L90 135.3q-2.27-37.07-4.54-74.12c-1.21-.91-2.43-1.82-3.66-2.71q2.82 40.01 5.61 80.02z"/><path class="cls-7" d="M93.1 138.1c-1-.93-2-1.87-3.09-2.8q-2.27-37.07-4.54-74.12L88.91 58Q91 98 93.1 138.1z"/><path d="M93.1 138.1c.9-1.1 1.76-2.1 2.65-3.1q-1.6-37.09-3.23-74.2c-1.19-.94-2.4-1.87-3.61-2.79Q91 98 93.1 138.1z"/><path class="cls-7" d="M98.79 137.83c-1-1-2-1.92-3-2.87q-1.6-37.09-3.23-74.2c1.16-1 2.32-2.09 3.5-3.12q1.34 40.1 2.73 80.19z"/><path class="cls-6" d="M132.9 138.78l2.79.27q3.18-39.93 6.38-79.88l-3.47-.34z"/><path class="cls-4" d="M81.69 56.64a1.15 1.15 0 0 0-1.13 1.15c.18 2.58.37 5.17.56 7.75l1.18-.09c-.2-2.94-.41-5.87-.61-8.81zM85.93 131.57c.2 2.59.38 5.19.57 7.77a1 1 0 0 0 1 1q-.32-4.42-.62-8.83z"/><path class="cls-5" d="M87.54 140.32a1 1 0 0 0 .88-1.13c-.17-2.59-.35-5.18-.52-7.78l-1 .08q.32 4.41.64 8.83zM83.48 65.36c-.17-2.59-.34-5.17-.52-7.76a1.13 1.13 0 0 0-1.27-1c.2 2.94.41 5.87.61 8.81z"/><path class="cls-4" d="M88.81 56.15a1.15 1.15 0 0 0-1.15 1.12c.15 2.59.29 5.17.43 7.76l1.19-.03c-.15-3-.28-5.91-.47-8.85zM91.75 131.14q.21 3.9.43 7.78a1 1 0 0 0 1 1c-.15-2.95-.31-5.89-.46-8.84z"/><path class="cls-5" d="M93.19 139.92a1 1 0 0 0 .91-1.1q-.19-3.9-.38-7.79l-1 .05c.16 2.92.28 5.92.47 8.84zM90.46 64.89q-.19-3.87-.38-7.76a1.13 1.13 0 0 0-1.27-1c.16 2.94.32 5.87.47 8.81z"/><path d="M98.78 137.85c.89-1 1.79-2.06 2.71-3.08l-1.92-74.25L96 57.66q1.39 40.1 2.78 80.19z"/><path class="cls-7" d="M104.47 137.7c-1-1-2-2-3-2.93l-1.9-74.25q1.75-1.53 3.55-3z"/><path class="cls-4" d="M95.94 55.83a1.15 1.15 0 0 0-1.17 1.1q.15 3.89.29 7.77h1.19c-.1-2.99-.25-5.93-.31-8.87zM97.55 130.87c.1 2.6.2 5.19.29 7.79a1 1 0 0 0 1 1q-.15-4.41-.31-8.84z"/><path class="cls-5" d="M98.84 139.67a1 1 0 0 0 .93-1.08c-.08-2.6-.17-5.2-.25-7.79h-1q.18 4.46.32 8.87zM97.43 64.61l-.24-7.77a1.15 1.15 0 0 0-1.25-1c.1 2.94.21 5.88.31 8.82z"/><path d="M104.47 137.67c.92-1 1.84-2 2.77-3q-.3-37.14-.62-74.27-1.74-1.48-3.5-2.94z"/><path class="cls-7" d="M110.17 137.65c-1-1-1.94-2-2.93-3q-.3-37.14-.62-74.27 1.8-1.5 3.61-3z"/><path class="cls-4" d="M103.09 55.62a1.13 1.13 0 0 0-1.19 1.07l.15 7.78h1.19c-.06-2.96-.1-5.91-.15-8.85zM103.37 130.67l.15 7.8a1 1 0 0 0 1 1q-.09-4.42-.15-8.85z"/><path class="cls-5" d="M104.51 139.5a1 1 0 0 0 .94-1.06q0-3.9-.11-7.8h-1q.08 4.43.17 8.86zM104.42 64.43c0-2.59-.07-5.18-.11-7.77a1.14 1.14 0 0 0-1.22-1c0 2.94.09 5.89.15 8.83z"/><path d="M110.16 137.67c.93-1 1.87-2 2.82-3l.69-74.26q-1.71-1.52-3.45-3z"/><path class="cls-7" d="M115.86 137.77c-1-1-1.91-2-2.88-3.06l.69-74.26q1.81-1.46 3.66-2.89z"/><path class="cls-4" d="M110.22 55.61a1.14 1.14 0 0 0-1.21 1v7.77h1.18c.02-2.88.03-5.83.03-8.77zM109.18 130.64v7.8a1 1 0 0 0 1 1.06v-8.85z"/><path class="cls-5" d="M110.16 139.5a1 1 0 0 0 1-1.05v-7.79h-1v8.84zM111.4 64.45v-7.77a1.14 1.14 0 0 0-1.2-1.07v8.83z"/><path d="M115.84 137.78c1-1 1.91-1.94 2.87-2.9l2-74.22c-1.13-1-2.26-2.06-3.41-3.09q-.73 40.11-1.46 80.21z"/><path class="cls-7" d="M121.54 138c-.94-1.05-1.88-2.08-2.83-3.12l2-74.22c1.22-.95 2.46-1.88 3.71-2.81z"/><path class="cls-4" d="M117.34 55.75a1.13 1.13 0 0 0-1.23 1l-.11 7.79h1.18q.08-4.38.16-8.79zM115 130.74l-.12 7.79a1 1 0 0 0 1 1.07q.07-4.41.16-8.84z"/><path class="cls-5" d="M115.81 139.6a1 1 0 0 0 1-1c0-2.59.11-5.19.16-7.79h-1q-.09 4.38-.16 8.79zM118.36 64.6c0-2.59.11-5.18.16-7.77a1.14 1.14 0 0 0-1.18-1.08q-.07 4.41-.17 8.82z"/><path d="M121.52 138c1-1 2-1.9 2.92-2.84Q126.1 98.1 127.75 61c-1.11-1.06-2.22-2.11-3.35-3.15z"/><path class="cls-7" d="M127.22 138.36c-.92-1.06-1.84-2.13-2.78-3.18Q126.1 98.1 127.75 61c1.25-.91 2.5-1.83 3.76-2.73z"/><path class="cls-4" d="M124.46 56a1.1 1.1 0 0 0-1.23 1c-.1 2.59-.18 5.18-.26 7.77l1.18.06q.17-4.38.31-8.83zM120.79 131c-.09 2.6-.17 5.2-.26 7.79a1 1 0 0 0 .93 1.1c.11-2.94.21-5.89.32-8.84z"/><path class="cls-5" d="M121.46 139.84a1 1 0 0 0 1-1l.3-7.79-1-.05c-.09 3-.19 5.9-.3 8.84zM125.33 64.91c.1-2.58.21-5.17.31-7.76a1.16 1.16 0 0 0-1.18-1.15q-.15 4.41-.31 8.82z"/><path d="M127.2 138.31l3-2.77q2.31-37 4.61-74.07-1.64-1.62-3.3-3.23z"/><path class="cls-7" d="M132.9 138.78c-.9-1.09-1.81-2.17-2.72-3.24q2.31-37 4.61-74.07 1.89-1.34 3.81-2.65z"/><path class="cls-4" d="M131.59 56.42a1.11 1.11 0 0 0-1.26 1q-.2 3.87-.4 7.76l1.19.08c.16-2.97.31-5.9.47-8.84zM126.59 131.24l-.39 7.76a1 1 0 0 0 .9 1.12l.48-8.83z"/><path class="cls-5" d="M127.1 140.14a1 1 0 0 0 1-1q.21-3.89.44-7.77l-1-.07z"/><path class="cls-4" d="M132.41 131.69c-.18 2.59-.35 5.18-.53 7.77a1 1 0 0 0 .89 1.14l.62-8.82z"/><path class="cls-5" d="M132.77 140.6a1 1 0 0 0 1-1q.3-3.88.58-7.77l-1-.09q-.26 4.45-.58 8.86zM132.3 65.31c.15-2.58.29-5.16.44-7.75a1.17 1.17 0 0 0-1.15-1.14c-.16 2.94-.31 5.87-.47 8.81z"/><path class="cls-4" d="M138.73 57a1.11 1.11 0 0 0-1.28.94c-.18 2.58-.35 5.17-.53 7.75l1.18.1z"/><path class="cls-5" d="M139.29 65.91l.57-7.75a1.18 1.18 0 0 0-1.13-1.16l-.63 8.79z"/><path class="cls-6" d="M69.51 76.86q2.8-3.21 5.71-6.37l-1.71-1.25q-2.91 3.17-5.71 6.39c-2.29-1.62-4.6-3.21-6.94-4.79l-1.39 1.65q3.53 2.34 6.93 4.76c-1.86 2.16-3.67 4.33-5.47 6.52 2.28 1.59 4.54 3.19 6.76 4.81-1.79 2.15-3.56 4.31-5.28 6.49 2.21 1.6 4.4 3.2 6.57 4.83q-2.61 3.21-5.11 6.47c2.16 1.61 4.29 3.22 6.39 4.86-1.25 1.6-2.49 3.21-3.7 4.82-.42.54-.82 1.07-1.22 1.62l1.57 1.2c1.56 1.21 3.11 2.43 4.63 3.66q-2.4 3.19-4.73 6.42l1.52 1.21q2.33-3.21 4.74-6.39c2 1.65 4 3.33 6 5l1.22-1.56c-2-1.7-4-3.39-6-5 1.22-1.59 2.46-3.16 3.71-4.73.43-.52.85-1 1.27-1.56l-1.53-1.27c-1.53-1.26-3.08-2.52-4.64-3.76q2.53-3.18 5.16-6.31c-2.09-1.71-4.21-3.38-6.35-5 1.74-2.13 3.53-4.23 5.34-6.32-2.15-1.71-4.33-3.37-6.54-5 1.81-2.14 3.65-4.25 5.53-6.35-2.24-1.76-4.46-3.42-6.73-5.05zm7 39.34q-1.87 2.35-3.71 4.74c-1.53-1.24-3.07-2.47-4.64-3.68q1.83-2.42 3.71-4.8 2.3 1.85 4.6 3.74zm-1.09-11.34c-1.31 1.58-2.59 3.17-3.86 4.77-1.58-1.24-3.17-2.46-4.79-3.67q1.9-2.43 3.86-4.83 2.37 1.87 4.75 3.73zm-1.1-11.34q-2 2.37-4 4.78c-1.62-1.23-3.27-2.45-4.92-3.65q2-2.45 4-4.85 2.44 1.83 4.88 3.72zM64 83.33c1.36-1.63 2.73-3.25 4.13-4.87q2.55 1.83 5.07 3.71Q71.08 84.56 69 87q-2.46-1.87-5-3.67z"/><path class="cls-6" d="M70.16 82.35A1.59 1.59 0 0 1 68.72 84 1.51 1.51 0 0 1 67 82.76a1.58 1.58 0 0 1 1.43-1.69 1.54 1.54 0 0 1 1.73 1.28zM71.35 93.71A1.57 1.57 0 0 1 70 95.39a1.52 1.52 0 0 1-1.72-1.28 1.57 1.57 0 0 1 1.39-1.69 1.49 1.49 0 0 1 1.68 1.29zM73.74 116.42a1.52 1.52 0 0 1-1.29 1.67 1.46 1.46 0 0 1-1.63-1.3 1.52 1.52 0 0 1 1.3-1.67 1.44 1.44 0 0 1 1.62 1.3zM72.55 105.07a1.53 1.53 0 0 1-1.35 1.66 1.47 1.47 0 0 1-1.67-1.28 1.55 1.55 0 0 1 1.35-1.68 1.49 1.49 0 0 1 1.67 1.3zM154.08 77.84c2.28-1.57 4.6-3.13 6.95-4.66l-1.4-1.66c-2.34 1.53-4.66 3.1-6.95 4.69Q149.86 73 147 69.73L145.25 71c1.94 2.14 3.84 4.28 5.71 6.45q-3.41 2.4-6.74 4.88 2.82 3.21 5.53 6.44c-2.21 1.61-4.4 3.25-6.55 4.91 1.81 2.13 3.59 4.26 5.34 6.41-2.15 1.62-4.28 3.26-6.37 4.93 1.75 2.13 3.47 4.25 5.16 6.39-1.57 1.22-3.12 2.46-4.65 3.7-.52.41-1 .83-1.54 1.25l1.26 1.58c1.26 1.58 2.5 3.18 3.72 4.77q-3 2.46-6 5l1.22 1.57 6-5c1.62 2.14 3.19 4.29 4.74 6.46l1.53-1.19c-1.55-2.17-3.13-4.34-4.74-6.48 1.54-1.22 3.08-2.41 4.65-3.6l1.57-1.18-1.21-1.64q-1.83-2.44-3.71-4.87c2.11-1.6 4.24-3.19 6.41-4.75-1.67-2.21-3.37-4.39-5.1-6.56q3.25-2.4 6.58-4.72-2.58-3.33-5.28-6.58c2.23-1.59 4.48-3.16 6.77-4.7q-2.69-3.35-5.47-6.63zm-1.78 40q-2.36 1.78-4.65 3.62c-1.22-1.61-2.46-3.2-3.71-4.79q2.3-1.86 4.65-3.68 1.88 2.41 3.71 4.84zm1.4-11.28q-2.41 1.78-4.8 3.61c-1.27-1.62-2.55-3.23-3.86-4.83 1.59-1.23 3.19-2.46 4.81-3.67 1.3 1.61 2.59 3.24 3.85 4.88zm1.4-11.29c-1.67 1.17-3.31 2.37-4.94 3.58q-2-2.43-4-4.84c1.64-1.23 3.28-2.45 4.94-3.65 1.35 1.64 2.68 3.25 4 4.9zm-7.82-12.59q2.52-1.85 5.08-3.63c1.4 1.63 2.77 3.27 4.14 4.92-1.71 1.18-3.41 2.36-5.08 3.57q-2.04-2.45-4.14-4.87z"/><path class="cls-6" d="M153.51 83.35a1.5 1.5 0 0 1-1.77 1.25 1.6 1.6 0 0 1-1.43-1.7 1.49 1.49 0 0 1 1.76-1.26 1.61 1.61 0 0 1 1.44 1.71zM152.2 94.68a1.48 1.48 0 0 1-1.72 1.25 1.58 1.58 0 0 1-1.39-1.69 1.49 1.49 0 0 1 1.73-1.24 1.59 1.59 0 0 1 1.38 1.68zM149.59 117.33a1.43 1.43 0 0 1-1.59 1.27 1.53 1.53 0 0 1-1.3-1.68 1.42 1.42 0 0 1 1.63-1.28 1.54 1.54 0 0 1 1.26 1.69zM150.9 106a1.47 1.47 0 0 1-1.68 1.27 1.56 1.56 0 0 1-1.34-1.69 1.45 1.45 0 0 1 1.68-1.27 1.56 1.56 0 0 1 1.34 1.69z"/></g></g></svg>