<svg xmlns="http://www.w3.org/2000/svg" viewBox="0 0 199.5 199.51"><defs><style>.cls-3,.cls-8{fill:#fff}.cls-4{fill:#ff5430}.cls-5{fill:#b7b1a9}.cls-6{fill:#c60000}.cls-7{fill:#5a5b52}.cls-8{opacity:.5}</style></defs><g id="Calque_2" data-name="Calque 2"><g id="Layer_1" data-name="Layer 1"><path fill="#ffe217" d="M0 0h199.5v199.51H0z"/><path fill="#eac311" d="M199.5 94.91l-50.07-50.07-21.3 3.54L95.3 82.44 81.83 68.97l-39.82 53.42.38 12.94-10.21 12.6 51.57 51.58H199.5V94.91z"/><path class="cls-3" d="M88.76 83.56h1.64v50.94h-1.64z"/><path class="cls-3" transform="matrix(1 -.00122 .00122 1 -.13 .15)" d="M126.6 83.56h1.64v50.93h-1.64z"/><path class="cls-3" d="M107.68 84.52h1.64v59.01h-1.64z"/><path class="cls-4" d="M108.5 85.78V62.14c-13.06 0-23.65-2.77-23.65-6.18v20.5c0 3.42 8.57 9.32 23.65 9.32z"/><path class="cls-5" d="M84.85 76.46v4.13c0 3.42 8.57 9.31 23.65 9.31v-4.12c-15.08 0-23.65-5.9-23.65-9.32zM86.89 54.34zM101.24 57.72h-.28zM88.62 55.18h-.07zM93.32 56.57zM97.9 57.36h-.25zM99.52 57.55zM92 56.26zM94.82 56.88h-.19zM90.77 55.92h-.07zM104.79 57.94zM106.8 58zM103.09 57.85h-.29zM102.8 57.83l-1.56-.11zM108.5 58h-1.7zM106.42 58l-1.63-.05zM97.65 57.33c-1-.14-1.93-.29-2.83-.45.9.12 1.84.31 2.83.45zM99.39 57.54c-.51 0-1-.12-1.49-.18.49.06.98.13 1.49.18zM101 57.69l-1.44-.14zM104.56 57.93l-1.47-.08zM86.86 54.33c-.23-.15-.45-.29-.65-.44.2.11.42.29.65.44zM94.63 56.84c-.45-.08-.89-.18-1.31-.27.42.09.86.19 1.31.27zM88.55 55.15a14.31 14.31 0 0 1-1.66-.81 14.31 14.31 0 0 0 1.66.81zM92 56.25c-.41-.1-.8-.22-1.18-.33.33.08.72.23 1.18.33zM93.26 56.56c-.43-.1-.85-.19-1.25-.3.4.11.82.2 1.25.3zM90.7 55.9c-.76-.23-1.46-.47-2.08-.72.62.25 1.32.49 2.08.72z"/><path class="cls-5" d="M108.5 62.14V58h-2.08l-1.63-.05h-.23l-1.47-.08h-.29l-1.56-.11h-.28l-1.44-.14h-.13c-.51 0-1-.12-1.49-.18h-.25c-1-.14-1.93-.29-2.83-.45h-.19c-.45-.08-.89-.18-1.31-.27s-.91-.2-1.31-.31-.86-.23-1.24-.34c-.83-.25-1.53-.49-2.15-.74a14.83 14.83 0 0 1-1.73-.84c-.26-.16-.48-.3-.68-.45a4.41 4.41 0 0 1-.77-.69 2 2 0 0 1-.18-.24l-.09-.12a1.09 1.09 0 0 1-.08-.15l-.09-.29a.84.84 0 0 1-.06-.14 1.21 1.21 0 0 1 0-.18v-.11a1.43 1.43 0 0 1 0-.29V56c-.09 3.37 10.5 6.14 23.56 6.14z"/><path class="cls-6" d="M108.5 62.14v23.64c14.76 0 23.65-5.9 23.65-9.32V56c0 3.37-10.59 6.14-23.65 6.14z"/><path class="cls-7" d="M132.15 80.59v-4.13c0 3.42-8.89 9.32-23.65 9.32v4.12c14.76 0 23.65-5.9 23.65-9.31z"/><path class="cls-5" d="M130.11 54.34zM123.69 56.57zM131.56 53.2l.06-.06zM113.91 57.85h.3zM115.76 57.72h.29zM125 56.26zM117.49 57.55zM128.39 55.18h.06zM131.75 53l.08-.12zM126.23 55.92h.08zM122.19 56.87h.18zM110.21 58zM132.15 51.83a1.43 1.43 0 0 1 0 .29 1.43 1.43 0 0 0 0-.29zM119.1 57.36h.26zM132 52.41a1.27 1.27 0 0 0 .06-.18 1.27 1.27 0 0 1-.06.18zM131.92 52.69l.07-.14zM112.22 57.94zM117.62 57.54l1.48-.18zM112.45 57.93l1.46-.08zM110.58 58l1.64-.05zM116.05 57.69l1.44-.14zM108.5 58h1.71zM114.21 57.83c.52 0 1-.06 1.55-.11-.51.05-1.03.08-1.55.11zM122.37 56.84c.45-.08.89-.18 1.32-.27-.43.09-.87.19-1.32.27zM131.62 53.14l.13-.18zM131.83 52.84l.09-.15zM119.36 57.33c1-.14 1.93-.29 2.83-.46-.9.13-1.85.32-2.83.46zM132.1 52.23a.43.43 0 0 0 0-.11.43.43 0 0 1 0 .11zM131.56 53.2a4.71 4.71 0 0 1-.76.69 4.71 4.71 0 0 0 .76-.69zM132 52.55a.78.78 0 0 0 0-.14.78.78 0 0 1 0 .14zM123.75 56.56c.43-.09.84-.19 1.24-.3-.4.11-.81.21-1.24.3zM125.05 56.25c.41-.1.81-.22 1.18-.33-.37.08-.77.23-1.18.33zM130.14 54.33a6.88 6.88 0 0 0 .66-.44 6.88 6.88 0 0 1-.66.44zM126.31 55.9c.75-.23 1.45-.47 2.08-.72-.63.25-1.33.49-2.08.72zM128.45 55.15a14.31 14.31 0 0 0 1.66-.81 14.31 14.31 0 0 1-1.66.81z"/><path class="cls-7" d="M132.1 52.23a1.27 1.27 0 0 1-.06.18.78.78 0 0 1 0 .14l-.07.14-.09.15-.08.12-.13.18a5.25 5.25 0 0 1-.82.75 6.88 6.88 0 0 1-.66.44 15.68 15.68 0 0 1-1.69.82c-.69.28-1.39.52-2.14.75-.45.13-.85.25-1.26.35s-.87.22-1.3.31-.93.2-1.38.28h-.18c-.9.17-1.85.32-2.83.46h-.26l-1.48.18h-.13l-1.44.14h-.29c-.51.05-1 .08-1.55.11h-.3l-1.46.08h-.23l-1.64.05h-2.08v4.12c13.06 0 23.65-2.77 23.65-6.18v-3.97a1.43 1.43 0 0 1 0 .29.43.43 0 0 1-.1.11z"/><path d="M116.61 46c3 1 4.68 2.31 4.68 3.7a1.37 1.37 0 0 1 0 .29v.29l-.06.14a.91.91 0 0 1-.07.14s0 .1-.08.16a.44.44 0 0 0-.08.11l-.13.17-.06.07a5.38 5.38 0 0 1-.73.67 7.54 7.54 0 0 1-.7.45 11.08 11.08 0 0 1-1.69.83 21.5 21.5 0 0 1-2.14.75c-.45.14-.85.24-1.25.34l-1.31.32c-.48.11-.93.19-1.38.28h-.18c-.9.16-1.84.32-2.83.44h-.25c-.49.07-1 .13-1.49.18h-.13c-.47.06-.95.1-1.44.14h-.28l-1.56.12h-.29l-1.47.07h-.23l-1.63.06h-4.17l-1.63-.06h-.33l-1.47-.07h-.29l-1.56-.12a1.33 1.33 0 0 1-.28 0h-.57c.37.13.76.26 1.17.38s.84.25 1.25.35.88.21 1.31.31.92.2 1.37.28h.19a3 3 0 0 1 .32.06c.81.13 1.64.27 2.51.39h.25c.49.06 1 .13 1.49.18h.13l1.44.14h.28l1.56.11h.29l1.47.08h.23l1.63.05h4.16l1.64-.05h.23l1.46-.08h.3c.52 0 1-.06 1.55-.11h.29l1.44-.14h.13l1.48-.18h.26c1-.14 1.93-.29 2.83-.46h.18c.45-.08.89-.18 1.32-.27s.9-.2 1.3-.31.87-.23 1.24-.34c.83-.25 1.53-.49 2.16-.74a15.44 15.44 0 0 0 1.72-.84 5.91 5.91 0 0 0 .69-.45 4.38 4.38 0 0 0 .76-.69l.19-.24.08-.12.09-.15.07-.14a.78.78 0 0 0 0-.14 1.27 1.27 0 0 0 .06-.18.43.43 0 0 0 0-.11 1.43 1.43 0 0 0 0-.29c.1-2.62-6.37-4.89-15.44-5.77z"/><path class="cls-7" d="M90.38 55.6l1.56.12h.29l1.47.07h.23l1.63.06h4.17l1.63-.06h.23l1.47-.07h.29l1.56-.12h.28c.49 0 1-.08 1.44-.14h.13c.5-.05 1-.11 1.49-.18h.25c1-.12 1.93-.28 2.83-.44h.18l1.32-.26 1.3-.32c.47-.12.87-.22 1.25-.34.83-.24 1.52-.49 2.15-.74a13.26 13.26 0 0 0 1.72-.83 8.23 8.23 0 0 0 .69-.46 4.94 4.94 0 0 0 .77-.69l.06-.07.13-.17a.44.44 0 0 1 .08-.11c0-.06 0-.11.08-.16a.91.91 0 0 0 .07-.14l.06-.14v-.29a1.37 1.37 0 0 0 0-.29c0-1.39-1.73-2.67-4.68-3.7-2.53-.24-5.26-.37-8.11-.37-13.06 0-23.65 2.77-23.65 6.19a1.43 1.43 0 0 0 0 .29v.11a1.21 1.21 0 0 0 0 .18.84.84 0 0 0 .06.14.46.46 0 0 0 .07.14 1.09 1.09 0 0 0 .08.15l.09.12c0 .06.08.11.12.18a5.31 5.31 0 0 0 .79.72c.24.18.46.32.69.47a15.68 15.68 0 0 0 1.69.82c.35.14.66.26 1 .37h.57a1.33 1.33 0 0 0 .47-.04z"/><path class="cls-8" d="M89.64 81.67a29.08 29.08 0 0 0 6 2.42v-23a39.8 39.8 0 0 1-6-1.45z"/><path class="cls-3" d="M89.64 81.67v4.15a28 28 0 0 0 6 2.41v-4.14a29.08 29.08 0 0 1-6-2.42zM95.62 57l-.81-.14zM95.62 61.12V57l-.81-.14h-.18l-1.31-.27c-.49-.11-.91-.2-1.31-.31l-1.24-.34c-.44-.13-.79-.25-1.13-.36v4.13a39.8 39.8 0 0 0 5.98 1.41zM118.65 64.13a.92.92 0 0 1-1.83 0v-4a.91.91 0 1 1 1.82 0z"/><path class="cls-5" d="M119.91 66.27a2 2 0 0 1-4 0v-.84a2 2 0 0 1 4 0z"/><path class="cls-3" d="M99.83 64.13a.91.91 0 1 1-1.82 0v-4a.91.91 0 1 1 1.82 0z"/><path class="cls-5" d="M101.09 66.27a2 2 0 0 1-4 0v-.84a2 2 0 1 1 4 0z"/><path class="cls-3" d="M118.64 82a.91.91 0 1 0-1.82 0v4a.92.92 0 0 0 1.83 0z"/><path class="cls-5" d="M119.91 79.88a2 2 0 0 0-4 0v.84a2 2 0 0 0 4 0z"/><path class="cls-3" d="M99.83 82A.91.91 0 1 0 98 82v4a.91.91 0 1 0 1.82 0z"/><path class="cls-5" d="M101.09 79.88a2 2 0 1 0-4 0v.84a2 2 0 1 0 4 0z"/><path class="cls-3" d="M146.91 72.66l-1.64-.77v53.39h1.64V72.66z"/><path class="cls-5" d="M128.44 43.52h-1.64v14.36l1.64 1.13V43.52zM146.43 125.28l-.52-1.76-19.11 17.61 1.12 1.21 18.51-17.06z"/><path d="M127.62 139.06c1.48 0 2.67 1.87 2.67 4.17H125c0-2.3 1.15-4.17 2.62-4.17z"/><path class="cls-3" d="M145.85 125.28l.52-1.76 19.1 17.61-1.1 1.21-18.52-17.06z"/><path d="M164.66 139.06c-1.48 0-2.67 1.87-2.67 4.17h5.33c0-2.3-1.19-4.17-2.66-4.17z"/><path class="cls-3" transform="rotate(-52.4 140.8224856 68.73790096)" d="M140.01 43.27h1.64v50.94h-1.64z"/><path class="cls-5" d="M145.75 41.68a3.05 3.05 0 0 1 .29 1.93c-.92 4.13-12.22 5.14-25.25 2.25-7.36-1.63-13.7-4.16-17.65-6.79 1.8 3.83 10.56 8.31 21.65 10.77 13 2.88 24.32 1.87 25.24-2.26.39-1.79-1.24-3.88-4.28-5.9z"/><path class="cls-3" d="M146 43.61a3.05 3.05 0 0 0-.29-1.93c-3.95-2.63-10.29-5.16-17.65-6.79-13-2.88-24.33-1.88-25.25 2.25a3 3 0 0 0 .29 1.93c4 2.63 10.29 5.16 17.65 6.79 13.07 2.89 24.37 1.88 25.25-2.25z"/><path class="cls-7" d="M131.68 39.54c-.26 1.16-2.28 1.7-4.52 1.2s-3.86-1.84-3.6-3 2.29-1.7 4.53-1.21 3.85 1.85 3.59 3.01z"/><path class="cls-3" d="M131.22 58.57a3.6 3.6 0 1 1-3.6-3.6 3.59 3.59 0 0 1 3.6 3.6z"/><path d="M149.69 73.38a3.6 3.6 0 1 1-3.6-3.59 3.6 3.6 0 0 1 3.6 3.59zM149.69 124.22a3.6 3.6 0 1 1-3.6-3.59 3.6 3.6 0 0 1 3.6 3.59z"/><path class="cls-3" d="M58.09 116.17h1.64v19.81h-1.64zM41.31 118.14v17.4l-6.85 8.88 1.3 1 7.19-9.31v-17.97h-1.64z"/><path class="cls-7" d="M35.45 142.81c-1.8 0-3.27 2.29-3.27 5.12h6.55c0-2.83-1.46-5.12-3.28-5.12z"/><path class="cls-5" d="M76.5 118.15v17.39l6.85 8.88-1.29 1-7.2-9.31v-17.97l1.64.01z"/><path d="M82.36 142.81c1.81 0 3.28 2.29 3.28 5.12h-6.56c0-2.83 1.47-5.12 3.28-5.12zM58.91 133.61c1.47 0 2.66 1.86 2.66 4.16h-5.33c0-2.3 1.19-4.17 2.67-4.16z"/><path class="cls-7" d="M89.58 132.11c1.47 0 2.67 1.87 2.67 4.17h-5.34c0-2.28 1.2-4.17 2.67-4.17z"/><path d="M127.42 132.11c1.48 0 2.67 1.87 2.67 4.17h-5.33c0-2.28 1.24-4.17 2.66-4.17zM108.5 141.14c1.48 0 2.67 1.87 2.67 4.17h-5.34c0-2.31 1.17-4.16 2.67-4.17z"/><path class="cls-4" d="M58.91 123.62V80.81c-13.07 0-23.65-2.77-23.65-6.19v39.69c0 3.41 8.57 9.31 23.65 9.31z"/><path class="cls-5" d="M35.26 114.31v4.12c0 3.42 8.57 9.31 23.65 9.31v-4.12c-15.08 0-23.65-5.9-23.65-9.31zM37.3 73zM51.64 76.39h-.28zM39 73.85h-.06zM43.72 75.24zM48.31 76h-.26zM49.92 76.23h-.12zM42.42 74.93zM45.22 75.54a1.13 1.13 0 0 1-.18 0 1.13 1.13 0 0 0 .18 0zM41.18 74.59h-.08zM55.19 76.61zM57.21 76.67zM53.49 76.52zM53.2 76.51l-1.56-.12zM58.91 76.68h-1.7c.56 0 1.12.01 1.7 0zM56.82 76.66h-1.63zM48.05 76c-1-.13-1.93-.28-2.83-.45.9.16 1.84.31 2.83.45zM49.8 76.21c-.51 0-1-.11-1.49-.18.48.07.98.13 1.49.18zM51.36 76.37l-1.44-.14zM55 76.6l-1.47-.08zM37.27 73a6.85 6.85 0 0 1-.66-.43 6.85 6.85 0 0 0 .66.43zM35.85 71.87a4.75 4.75 0 0 0 .76.69 4.75 4.75 0 0 1-.76-.69zM45 75.51l-1.32-.27zM39 73.82a13.56 13.56 0 0 1-1.7-.82 13.56 13.56 0 0 0 1.7.82zM42.36 74.92l-1.18-.33zM43.66 75.23c-.43-.09-.84-.2-1.24-.3.4.07.81.21 1.24.3zM41.1 74.57c-.76-.23-1.45-.47-2.08-.72.63.25 1.32.49 2.08.72z"/><path class="cls-5" d="M58.91 80.81v-4.13H55l-1.47-.08h-.33l-1.56-.12h-.28l-1.44-.14h-.12c-.51 0-1-.11-1.49-.18h-.26c-1-.13-1.93-.28-2.83-.45a1.13 1.13 0 0 1-.18 0l-1.32-.27c-.49-.1-.9-.21-1.3-.31l-1.24-.34c-.84-.25-1.53-.49-2.16-.74A14.62 14.62 0 0 1 37.3 73a7.55 7.55 0 0 1-.69-.45 4.75 4.75 0 0 1-.76-.69l-.06-.07-.13-.17-.08-.12-.09-.15-.07-.14-.06-.14v-.29-.29 4.12c-.1 3.39 10.48 6.2 23.55 6.2z"/><path class="cls-6" d="M58.91 80.81v42.81c14.76 0 23.65-5.89 23.65-9.31V74.62c0 3.38-10.56 6.19-23.65 6.19z"/><path class="cls-7" d="M82.56 118.43v-4.12c0 3.42-8.89 9.31-23.65 9.31v4.12c14.76 0 23.65-5.89 23.65-9.31z"/><path class="cls-5" d="M80.51 73zM74.09 75.24zM82 71.87v-.07zM64.32 76.52zM66.17 76.39h.28zM75.4 74.93zM67.9 76.23h.12zM78.79 73.84h.06zM82.16 71.63l.08-.12zM76.63 74.59h.08zM72.59 75.54a1 1 0 0 0 .18 0 1 1 0 0 1-.18 0zM60.61 76.67zM82.56 70.5a1.5 1.5 0 0 1 0 .29 1.5 1.5 0 0 0 0-.29zM69.5 76h.26zM82.45 71.08a1.21 1.21 0 0 0 0-.18 1.21 1.21 0 0 1 0 .18zM82.32 71.36l.07-.14c.02-.04-.04.09-.07.14zM62.62 76.61zM68 76.21c.5 0 1-.11 1.48-.18-.48.07-.96.13-1.48.18zM62.85 76.6l1.47-.08zM61 76.66h1.63zM66.45 76.36l1.45-.13zM58.91 76.68h1.7c-.56 0-1.13.01-1.7 0zM64.61 76.51l1.56-.12zM72.77 75.51l1.32-.27zM82 71.8l.13-.17zM82.24 71.51a1.09 1.09 0 0 0 .08-.15 1.09 1.09 0 0 1-.08.15zM69.76 76c1-.13 1.94-.28 2.83-.45-.89.16-1.84.31-2.83.45zM82.5 70.9v-.11zM82 71.87a5.8 5.8 0 0 1-.76.69 5.8 5.8 0 0 0 .76-.69zM82.39 71.22l.06-.14zM74.15 75.23c.43-.09.85-.2 1.25-.3-.4.07-.82.21-1.25.3zM75.46 74.92l1.17-.33zM80.54 73c.24-.15.47-.29.67-.44-.21.15-.43.29-.67.44zM76.71 74.57a21.67 21.67 0 0 0 2.08-.73 21.67 21.67 0 0 1-2.08.73zM78.85 73.82a12.88 12.88 0 0 0 1.66-.82 12.88 12.88 0 0 1-1.66.82z"/><path class="cls-7" d="M82.5 70.9a1.21 1.21 0 0 1 0 .18l-.06.14s0 .09-.07.14a1.09 1.09 0 0 1-.08.15l-.08.12-.21.17-.06.07a5.8 5.8 0 0 1-.76.69c-.2.15-.43.29-.67.44a14 14 0 0 1-1.69.82c-.68.28-1.38.52-2.14.75l-1.25.35c-.46.11-.88.22-1.31.31l-1.38.28a1 1 0 0 1-.18 0c-.89.17-1.84.32-2.83.45h-.26c-.48.07-1 .13-1.48.18h-.12l-1.45.13h-.28l-1.56.12h-.29l-1.47.08H58.88v4.13c13.12.21 23.68-2.6 23.68-5.98V70.5a1.5 1.5 0 0 1 0 .29z"/><path d="M67 64.68c2.94 1 4.68 2.31 4.68 3.7a1.36 1.36 0 0 1 0 .29v.11a1.21 1.21 0 0 1 0 .18v.14s-.05.09-.07.14-.06.1-.09.15l-.08.12a1.09 1.09 0 0 1-.13.17l-.06.07a4.77 4.77 0 0 1-.73.66 6 6 0 0 1-.69.47 15.68 15.68 0 0 1-1.83.82c-.69.28-1.38.52-2.14.75-.46.14-.85.24-1.26.35s-.87.21-1.3.31-.93.2-1.38.28h-.18c-.9.17-1.85.32-2.83.46h-.26c-.49.07-1 .12-1.49.18h-.12l-1.44.13h-.28l-1.56.11h-.3l-1.46.21h-.23c-.54 0-1.09 0-1.64.05H46c-.55 0-1.1 0-1.63-.05h-.27l-1.46-.08h-.29l-1.56-.12H39.94l1.16.38 1.26.35c.46.11.87.22 1.3.31l1.38.28a1.13 1.13 0 0 0 .18 0l.33.06c.8.14 1.63.28 2.5.39h.26c.48.07 1 .13 1.49.18h.12l1.44.14h.28l1.56.12h.29l1.51.11h7.86l1.47-.08h.29l1.56-.12h.28l1.45-.13h.12c.5 0 1-.11 1.48-.18h.26c1-.13 1.94-.28 2.83-.45a1 1 0 0 0 .18 0l1.32-.27c.49-.1.91-.21 1.31-.31l1.23-.34a21.27 21.27 0 0 0 2.16-.75 12.66 12.66 0 0 0 1.71-.97 7.82 7.82 0 0 0 .7-.45 5.32 5.32 0 0 0 .76-.69l.03-.06.13-.17.08-.12a1.09 1.09 0 0 0 .08-.15l.07-.14.06-.14a1.21 1.21 0 0 0 0-.18v-.11a1.5 1.5 0 0 0 0-.29c.14-2.68-6.33-4.95-15.42-5.82z"/><path class="cls-7" d="M40.79 74.27l1.56.12h.29l1.46.08h.24c.53 0 1.08 0 1.63.05h4.16c.55 0 1.1 0 1.64-.05H52l1.46-.08h.3l1.56-.11h.28l1.4-.17h.12c.51-.06 1-.11 1.49-.18h.26c1-.14 1.93-.29 2.83-.46h.18c.45-.08.89-.18 1.32-.27s.9-.2 1.3-.31.86-.22 1.24-.34c.84-.25 1.53-.49 2.15-.74a14.83 14.83 0 0 0 1.73-.84 5.91 5.91 0 0 0 .69-.45 5.32 5.32 0 0 0 .76-.69l.06-.07a1.09 1.09 0 0 0 .13-.17l.08-.12s.06-.09.09-.15 0-.1.07-.14v-.14a1.21 1.21 0 0 0 0-.18v-.11a1.36 1.36 0 0 0 0-.29c.2-1.46-1.5-2.75-4.5-3.78-2.53-.24-5.26-.37-8.11-.37-13.06 0-23.65 2.77-23.65 6.19v.58l.06.14s0 .09.07.14l.09.15.08.12.13.17.06.07a3.65 3.65 0 0 0 .73.66 5.91 5.91 0 0 0 .69.46 13.31 13.31 0 0 0 1.69.83c.35.15.66.26 1 .37h.56z"/><path class="cls-3" d="M56.05 96a1.91 1.91 0 0 0 0 3.81h2.86V96zM56.05 102.24a1.91 1.91 0 0 0 0 3.81h2.86v-3.81z"/><path class="cls-5" d="M63.67 97.9a1.9 1.9 0 0 0-1.9-1.9h-2.86v3.81h2.85a1.9 1.9 0 0 0 1.91-1.91zM63.67 104.15a1.91 1.91 0 0 0-1.9-1.91h-2.86v3.81h2.85a1.9 1.9 0 0 0 1.91-1.9z"/><path class="cls-8" d="M40.05 119.51a28.33 28.33 0 0 0 6 2.41V79.79a37.16 37.16 0 0 1-6-1.46z"/><path class="cls-3" d="M40.05 119.51v4.15a27.3 27.3 0 0 0 6 2.41v-4.15a28.33 28.33 0 0 1-6-2.41zM46 75.66l-.81-.14zM46 79.79v-4.13l-.81-.14h-.18l-1.32-.27-1.3-.31-1.24-.34c-.44-.13-.8-.25-1.13-.36v4.12A37.16 37.16 0 0 0 46 79.79zM69.05 82.8a.91.91 0 0 1-.91.91.93.93 0 0 1-.92-.91v-4a.93.93 0 0 1 .92-.91.91.91 0 0 1 .91.91z"/><path class="cls-5" d="M70.31 84.94a2 2 0 0 1-4 0v-.85a2 2 0 0 1 4 0z"/><path class="cls-3" d="M50.24 82.8a.92.92 0 0 1-1.83 0v-4a.92.92 0 0 1 1.83 0z"/><path class="cls-5" d="M51.5 84.94a2 2 0 0 1-4 0v-.85a2 2 0 0 1 4 0z"/><path class="cls-3" d="M69.05 119.86a.92.92 0 0 0-1.83 0v4a.91.91 0 1 0 1.82 0z"/><path class="cls-5" d="M70.31 117.72a2 2 0 0 0-4 0v.84a2 2 0 0 0 4 0z"/><path class="cls-3" d="M50.24 119.86a.91.91 0 0 0-.92-.91.89.89 0 0 0-.9.91v4a.92.92 0 1 0 1.83 0z"/><path class="cls-5" d="M51.5 117.72a2 2 0 0 0-4 0v.84a2 2 0 0 0 4 0zM85.44 53.2a4.71 4.71 0 0 0 .76.69 4.71 4.71 0 0 1-.76-.69z"/><path class="cls-4" d="M77.81 127.71l40.76 9.56 6.65-28.35-15.22-3.57c-14.09-3.35-28.52 6.7-32.19 22.36z"/><path class="cls-6" d="M96.72 162.07l15.2 3.56 6.65-28.36-40.76-9.56c-3.68 15.67 4.79 31.04 18.91 34.36z"/><path class="cls-7" d="M107.73 104.81l-2.3-.54C91.31 101 76.88 111 73.21 126.64l2.3.53c3.67-15.66 18.1-25.67 32.22-22.36z"/><path d="M75.51 127.17l-2.3-.53c-3.67 15.66 4.8 31 18.92 34.35l2.3.54c-14.12-3.32-22.59-18.7-18.92-34.36z"/><path class="cls-3" d="M75.51 127.17l2.3.54c3.67-15.66 18.1-25.71 32.19-22.36l-2.3-.54c-14.09-3.31-28.52 6.7-32.19 22.36z"/><path class="cls-5" d="M77.81 127.71l-2.3-.54c-3.67 15.66 4.8 31 18.92 34.36l2.29.54c-14.12-3.32-22.59-18.69-18.91-34.36z"/><path class="cls-7" d="M125.22 108.92c-14.12-3.32-28.55 6.69-32.22 22.36s4.8 31 18.92 34.35 28.55-6.7 32.22-22.36-4.8-31.05-18.92-34.35z"/><path d="M139.54 142.19c3.68-15.66-1.11-27.77-14.32-33.27 14.12 3.3 22.59 18.69 18.92 34.35s-18.1 25.67-32.22 22.36c13.22 1.14 23.95-7.78 27.62-23.44z"/><path class="cls-3" d="M75.6 125.85l-1.95-.45a1.28 1.28 0 0 0-1.52 1l4.4 1a1.29 1.29 0 0 0-.93-1.55z"/><path class="cls-5" d="M73.06 127.94l1.94.46a1.3 1.3 0 0 0 1.53-1l-4.4-1a1.28 1.28 0 0 0 .93 1.54z"/><path class="cls-3" d="M89.15 107.35l-2-.46a1.27 1.27 0 0 0-1.52 1l4.4 1a1.28 1.28 0 0 0-.88-1.54z"/><path class="cls-5" d="M86.6 109.44l2 .45a1.29 1.29 0 0 0 1.53-1l-4.4-1a1.28 1.28 0 0 0 .87 1.55z"/><path class="cls-3" d="M79.45 148.72l-2-.46a1.27 1.27 0 0 0-1.52 1l4.4 1a1.28 1.28 0 0 0-.88-1.54z"/><path class="cls-5" d="M76.91 150.81l1.94.45a1.28 1.28 0 0 0 1.53-1l-4.4-1a1.28 1.28 0 0 0 .93 1.55z"/><path class="cls-3" d="M93.08 129.81l-2-.46a1.3 1.3 0 0 0-1.53 1l4.4 1a1.27 1.27 0 0 0-.87-1.54z"/><path class="cls-5" d="M90.53 131.9l2 .45a1.27 1.27 0 0 0 1.52-1l-4.4-1a1.29 1.29 0 0 0 .88 1.55z"/><path class="cls-3" d="M106.63 111.31l-1.95-.46a1.29 1.29 0 0 0-1.53 1l4.4 1a1.27 1.27 0 0 0-.92-1.54z"/><path class="cls-5" d="M104.08 113.4l2 .45a1.27 1.27 0 0 0 1.52-1l-4.4-1a1.29 1.29 0 0 0 .88 1.55z"/><path class="cls-3" d="M96.93 152.68l-2-.46a1.29 1.29 0 0 0-1.53 1l4.4 1a1.27 1.27 0 0 0-.87-1.54z"/><path class="cls-5" d="M94.38 154.77l2 .45a1.27 1.27 0 0 0 1.52-1l-4.4-1a1.29 1.29 0 0 0 .88 1.55z"/></g></g></svg>