<svg xmlns="http://www.w3.org/2000/svg" viewBox="0 0 199.5 199.5"><defs><style>.cls-3{fill:#ff5430}.cls-4{fill:#fff}.cls-5{fill:#b7b1a9}.cls-6{fill:#f5f5f5}</style></defs><g id="Calque_2" data-name="Calque 2"><g id="Layer_1" data-name="Layer 1"><path fill="#ffe217" d="M0 0h199.5v199.5H0z"/><path fill="#eac311" d="M199.5 78.5l-40.1-40.1L39.39 158.41l41.1 41.09H199.5v-121z"/><path transform="rotate(-44.99 147.65053746 53.77442104)" d="M146.03 51.21h3.23v5.12h-3.23z"/><path transform="rotate(-44.98 139.98170303 61.44802622)" d="M133.4 58.89h13.14v5.12H133.4z"/><path transform="rotate(-45 123.11467486 78.30423194)" d="M108.52 75.74h29.18v5.12h-29.18z"/><path d="M41 156.75l12.34 12.34c.25-13.15 5.63-21.81 13-30.18l-3.74-3.74zM64.51 133.28l3.63 3.62 44.58-44.58-3.63-3.62zM153 44.75l3.63 3.63 1.88-1.89a6.46 6.46 0 0 0 .85-8.09z"/><path transform="rotate(-45 151.8221745 49.59319626)" d="M150.21 47.04h3.23v5.12h-3.23z"/><path class="cls-3" transform="rotate(-45.01 148.2084245 45.97871493)" d="M146.58 43.41h3.23v5.12h-3.23z"/><path class="cls-3" transform="rotate(-45.01 144.0356451 50.14610803)" d="M142.41 47.59h3.23v5.12h-3.23z"/><path class="cls-3" d="M62.63 135.17l-3.75-3.74c-8.36 7.36-17 12.74-30.17 13L41 156.75zM159.4 38.4a6.45 6.45 0 0 0-8.09.84l-1.89 1.89 3.58 3.62zM109.09 88.7l-3.62-3.62-44.53 44.53 3.57 3.67z"/><path class="cls-3" transform="rotate(-45.01 136.34092472 57.83146845)" d="M129.77 55.27h13.14v5.12h-13.14z"/><path class="cls-3" transform="rotate(-45.02 119.48485035 74.68089828)" d="M104.9 72.12h29.18v5.12H104.9z"/><path class="cls-4" d="M28.71 144.41l-1.66 1.66 12.34 12.33 1.61-1.65z"/><path class="cls-5" d="M39.39 158.4l12.34 12.34 1.65-1.65L41 156.75zM62.63 135.17l3.74 3.74c.59-.67 1.16-1.34 1.77-2l-3.63-3.62z"/><path class="cls-4" d="M64.51 133.28l-3.62-3.63c-.66.62-1.34 1.19-2 1.78l3.75 3.74z"/><path class="cls-5" transform="rotate(-45.02 111.83301366 89.56304553)" d="M110.51 87.01h2.67v5.12h-2.67z"/><path class="cls-4" transform="rotate(-45.02 108.22750844 85.94827882)" d="M106.89 83.38h2.67v5.12h-2.67z"/><path class="cls-5" transform="rotate(-44.96 134.38279894 67.04306054)" d="M133.04 64.48h2.67v5.12h-2.67z"/><path class="cls-4" transform="rotate(-45.02 130.76632248 63.42351774)" d="M129.42 60.86h2.67v5.12h-2.67z"/><path class="cls-5" transform="rotate(-45 145.577839 55.8596847)" d="M144.23 53.3h2.67v5.13h-2.67z"/><path class="cls-4" transform="rotate(-45 141.91689924 52.2360956)" d="M140.6 49.68h2.67v5.12h-2.67z"/><path class="cls-5" transform="rotate(-44.98 149.75289987 51.68584568)" d="M148.4 49.12h2.67v5.12h-2.67z"/><path class="cls-4" transform="rotate(-44.98 146.13101529 48.06429129)" d="M144.77 45.5h2.67v5.13h-2.67z"/><path class="cls-5" transform="rotate(-45.01 153.90492836 47.51876577)" d="M152.57 44.95h2.67v5.12h-2.67z"/><path class="cls-4" transform="rotate(-44.99 150.27483648 43.88495987)" d="M148.95 41.33h2.67v5.12h-2.67z"/><path class="cls-4" d="M97.32 96.88A1.63 1.63 0 0 1 95 99.19l-3.88-3.89a1.65 1.65 0 0 1 0-2.31 1.63 1.63 0 0 1 2.31 0zM101.1 93.1a1.65 1.65 0 0 1 0 2.31 1.63 1.63 0 0 1-2.31 0l-3.89-3.89a1.63 1.63 0 0 1 2.31-2.3zM85.6 119.44a3.41 3.41 0 0 0 4.83-4.82l-4.83 4.82zM93.5 111.54a3.42 3.42 0 0 0 4.83-4.83zM82.69 107.86a2.52 2.52 0 0 1 3.56-3.57zM69.58 121a2.52 2.52 0 0 1 3.56-3.56zM108.83 81.72a3.42 3.42 0 0 1 4.83-4.83z"/><path class="cls-6" d="M122.51 75.29a2.43 2.43 0 1 0-3.44 3.43zM107.7 90.09a2.43 2.43 0 0 0-3.44 3.44z"/><path class="cls-5" d="M122.51 78.72a2.44 2.44 0 0 0 0-3.43l-3.44 3.43a2.43 2.43 0 0 0 3.44 0zM107.71 93.53a2.45 2.45 0 0 0 0-3.44l-3.44 3.44a2.44 2.44 0 0 0 3.44 0z"/></g></g></svg>