<svg xmlns="http://www.w3.org/2000/svg" viewBox="0 0 199.5 199.51"><defs><style>.cls-3{fill:#5a5b52}.cls-4{fill:#c60000}.cls-5{fill:#ff5430}.cls-6{fill:#ffe217}.cls-9{fill:#b48205}</style></defs><g id="Calque_2" data-name="Calque 2"><g id="Layer_1" data-name="Layer 1"><path fill="#a9deff" d="M0 0h199.5v199.5H0z"/><path fill="#5bc6ff" d="M199.5 106.47l-63.92-63.91-64.54 118.32 38.63 38.62h89.83v-93.03z"/><path d="M136.69 50.47a2.37 2.37 0 1 1 2.22-2.54 2.39 2.39 0 0 1-2.22 2.54z"/><path d="M137 55.2a2.37 2.37 0 1 1 2.24-2.53A2.4 2.4 0 0 1 137 55.2z"/><path d="M137.3 59.93a2.37 2.37 0 1 1 2.25-2.51 2.39 2.39 0 0 1-2.25 2.51z"/><path d="M137.55 64.66a2.37 2.37 0 1 1 2.27-2.49 2.37 2.37 0 0 1-2.27 2.49z"/><path d="M137.76 69.4a2.37 2.37 0 1 1 2.29-2.47 2.39 2.39 0 0 1-2.29 2.47z"/><path d="M137.92 74.14a2.37 2.37 0 1 1 2.32-2.45 2.38 2.38 0 0 1-2.32 2.45z"/><path d="M138 78.88a2.37 2.37 0 1 1-.11-4.74 2.37 2.37 0 1 1 .11 4.74z"/><path d="M138.09 83.62a2.37 2.37 0 1 1 2.37-2.4 2.39 2.39 0 0 1-2.37 2.4z"/><path d="M138.09 88.36A2.37 2.37 0 1 1 140.5 86a2.39 2.39 0 0 1-2.41 2.36z"/><path d="M138 93.1a2.37 2.37 0 1 1 2.44-2.34A2.39 2.39 0 0 1 138 93.1z"/><path d="M137.87 97.84a2.37 2.37 0 1 1 2.48-2.29 2.36 2.36 0 0 1-2.48 2.29z"/><path d="M137.64 102.58a2.37 2.37 0 1 1 .23-4.74 2.37 2.37 0 1 1-.23 4.74z"/><path d="M137.29 107.3a2.37 2.37 0 1 1 .35-4.72 2.37 2.37 0 1 1-.35 4.72z"/><path d="M136.8 112a2.37 2.37 0 1 1 2.65-2.11 2.38 2.38 0 0 1-2.65 2.11z"/><path d="M136.14 116.71a2.37 2.37 0 1 1 .66-4.69 2.37 2.37 0 1 1-.66 4.69z"/><path d="M135.23 121.36a2.37 2.37 0 0 1 .91-4.65 2.37 2.37 0 1 1-.91 4.65z"/><path d="M133.93 125.92a2.37 2.37 0 0 1 1.3-4.56 2.37 2.37 0 1 1-1.3 4.56z"/><path d="M131.8 130.14a2.66 2.66 0 0 1-.94-3.07 2.52 2.52 0 0 1 3.07-1.15 2.29 2.29 0 0 1 1.25 3.23 2.24 2.24 0 0 1-3.38.99z"/><path d="M127.75 131.23c.36-.55.95-.88 1.22-1.24a.89.89 0 0 0 .26-.66c0 .13 1.56 0 2.57.81a1.83 1.83 0 0 1 .77 1.7 2.51 2.51 0 0 1-1.83 2 2.7 2.7 0 0 1-3-.74 1.54 1.54 0 0 1 .01-1.87zM125 127.41a2.6 2.6 0 0 1 3.12.76c.52.81.25 1.89-.39 3.06s-2.71 1-3.59-.41a2.26 2.26 0 0 1 .86-3.41z"/><path d="M123.46 122.94a2.37 2.37 0 0 1 1.56 4.47 2.29 2.29 0 0 1-3.13-1.42 2.33 2.33 0 0 1 1.57-3.05z"/><path d="M122.42 118.32a2.37 2.37 0 0 1 1 4.62 2.37 2.37 0 1 1-1-4.62z"/><path d="M121.73 113.63a2.37 2.37 0 0 1 .69 4.69 2.37 2.37 0 1 1-.69-4.69z"/><path d="M121.29 108.91a2.37 2.37 0 0 1 .44 4.72 2.37 2.37 0 1 1-.44-4.72z"/><path d="M121.07 104.18a2.37 2.37 0 1 1 .22 4.73 2.37 2.37 0 1 1-.22-4.73z"/><path d="M121 99.44a2.37 2.37 0 1 1-2.4 2.39 2.37 2.37 0 0 1 2.4-2.39zM116.47 106.76h1c.52 14.69 2.81 34.77 8.16 49.6a6.43 6.43 0 0 1 .17.76 4.38 4.38 0 0 1 0 .51c0 5.82-12.56 10.55-28.08 10.59v-58.77z"/><path class="cls-3" d="M79.13 106.76h-1c-.52 14.69-2.81 34.77-8.16 49.6-.06.26-.14.5-.18.76a4.24 4.24 0 0 0 0 .51c0 5.82 12.55 10.55 28.07 10.59v-58.77z"/><path class="cls-4" d="M102.32 109.23c.69-.06 1.38-.11 2-.19 13-11.35 19.23-30.74 20-56.69l.36-.1a86.15 86.15 0 0 1-10.78 2h.28c.61 24.86-3.24 42.45-11.86 54.98z"/><path class="cls-4" d="M107.14 108.59c1-.19 1.81-.4 2.62-.63C123.31 97.39 133.18 81.8 134 48.45a27.25 27.25 0 0 1-7.67 3.33l.84-.24c-.74 26.52-6.69 45.24-20.03 57.05z"/><path class="cls-5" d="M81.32 54.2h.27a86.31 86.31 0 0 1-10.77-2l.36.1c.76 25.95 7 45.34 20 56.69.64.08 1.33.13 2 .19C84.57 96.7 80.71 79.11 81.32 54.2z"/><path class="cls-5" d="M68.3 51.54l.84.24a25.78 25.78 0 0 1-7.71-3.4c.9 33.42 10.77 49 24.32 59.58.8.23 1.67.44 2.62.63C75 96.78 69.08 78.07 68.3 51.54z"/><path class="cls-4" d="M98.75 109.41h1.08c8.31-12.08 12.07-30.52 11.49-54.87a133.91 133.91 0 0 1-13.39.68h1.88z"/><path class="cls-5" d="M97.58 55.19c-4.72 0-9.22-.25-13.4-.68-.57 24.35 3.18 42.79 11.5 54.87h1.08L95.7 55.2z"/><path class="cls-4" d="M61.47 48.45C59.89 47.27 59 46.07 59 44.81c0 35.57 11.24 52.24 22 61a15.75 15.75 0 0 0 4.75 2.19C72.2 97.39 62.33 81.8 61.47 48.45z"/><path class="cls-4" d="M71.18 52.35l-.36-.1c-.58-.15-1.13-.31-1.68-.47l-.84-.24c.78 26.53 6.73 45.24 20.07 57.05.87.17 1.81.32 2.8.45C78.22 97.69 71.94 78.3 71.18 52.35z"/><path class="cls-4" d="M84.18 54.51c-.87-.08-1.74-.18-2.59-.28h-.27c-.61 24.91 3.25 42.5 11.86 55 .81.07 1.63.12 2.5.15-8.32-12.08-12.07-30.52-11.5-54.87zM97.75 55.2h-2l1.06 54.21h1z"/><path class="cls-3" d="M63.34 40.47a2.28 2.28 0 0 1 0-.45C60.59 41.46 59 43.08 59 44.81c0 1.26.88 2.46 2.42 3.57a25.78 25.78 0 0 0 7.71 3.4l1.68.47a86.31 86.31 0 0 0 10.77 2c.85.1 1.72.2 2.59.28 4.18.43 8.68.67 13.4.68h.17v-5.5c-19.01-.03-34.4-4.15-34.4-9.24z"/><path class="cls-6" d="M97.75 55.2z"/><path d="M134.08 48.38c-.9 33.42-10.77 49-24.32 59.58a15.75 15.75 0 0 0 4.78-2.11c10.72-8.8 22-25.47 22-61-.04 1.22-.92 2.42-2.46 3.53z"/><path d="M104.34 109c1-.13 1.93-.28 2.8-.45 13.34-11.81 19.29-30.53 20.07-57l-.84.24c-.55.16-1.1.32-1.68.47l-.36.1c-.76 25.94-7.04 45.33-19.99 56.64z"/><path d="M99.83 109.38q1.29 0 2.49-.15c8.62-12.53 12.47-30.12 11.87-55h-.28c-.85.1-1.71.2-2.59.28.58 24.35-3.18 42.79-11.49 54.87zM97.75 109.44h1l1.06-54.24h-2.06zM132.13 40a3.42 3.42 0 0 1 0 .45c0 5.09-15.39 9.21-34.42 9.24v5.48h.18a133.91 133.91 0 0 0 13.39-.68c.88-.08 1.74-.18 2.59-.28a86.15 86.15 0 0 0 10.78-2l1.68-.47a26 26 0 0 0 7.71-3.4c1.54-1.11 2.42-2.31 2.42-3.57.04-1.69-1.55-3.32-4.33-4.77z"/><path class="cls-6" d="M97.93 55.19h-.18a1.08 1.08 0 0 0 .18 0z"/><path d="M132.13 40c-.87-4.82-15.64-8.67-33.88-8.77 9.58 1.54 16.15 4.28 16.72 7.44a2.49 2.49 0 0 1 0 .46c0 5.08-15.39 9.2-34.42 9.23h-.49a113.81 113.81 0 0 0 17.64 1.33c19 0 34.42-4.15 34.42-9.24a3.42 3.42 0 0 0 .01-.45z" fill="#b7b1a9"/><path d="M115 39.15a2.49 2.49 0 0 0 0-.46c-.57-3.16-7.14-5.9-16.72-7.44h-.5c-18.46 0-33.49 3.91-34.37 8.78a2.28 2.28 0 0 0 0 .45c0 3.36 6.73 6.29 16.77 7.91h.49c18.96-.04 34.33-4.16 34.33-9.24z" fill="#fff"/><path class="cls-9" d="M97.84 109.45h2.08q1.29 0 2.49-.15c.69-.06 1.38-.11 2-.19 1-.13 1.93-.28 2.8-.45s1.81-.4 2.62-.63a15.87 15.87 0 0 0 4.78-2.11 7.4 7.4 0 0 0 .82-.68 2.18 2.18 0 0 1 2 1.38 2.11 2.11 0 0 1 0 .26c0 2.9-8.85 5.26-19.71 5.29l-.65-1.31a9.92 9.92 0 0 1 .77-1.41zM120.16 121.58a1.55 1.55 0 0 1 0 .31c0 3.5-10 6.35-22.44 6.37l-.65-2.1.65-3c9.16 0 17-1.58 20.51-3.81a3.75 3.75 0 0 1 1.93 2.23zM124.85 148.92a4.36 4.36 0 0 1 0 .51c0 5.77-12.12 10.46-27.13 10.5l-2.13-3.75 2.13-4.72c11.08 0 20.58-2.61 24.8-6.27a6.11 6.11 0 0 1 2.33 3.73z"/><path class="cls-6" d="M97.75 109.45h-2.08c-.87 0-1.69-.08-2.5-.15s-1.37-.11-2-.19c-1-.13-1.93-.28-2.8-.45s-1.82-.4-2.62-.63a15.75 15.75 0 0 1-4.75-2.18 6.58 6.58 0 0 1-.82-.68 2.18 2.18 0 0 0-2 1.38 2.28 2.28 0 0 0 0 .26c0 2.9 8.85 5.26 19.7 5.29a26.07 26.07 0 0 0-.13-2.65zM75.44 121.58a1.53 1.53 0 0 0 0 .3c0 3.51 10 6.36 22.43 6.38v-5.14c-9.16 0-17-1.58-20.5-3.81a3.71 3.71 0 0 0-1.93 2.27zM70.75 148.92a4.38 4.38 0 0 0 0 .51c0 5.77 12.13 10.46 27.13 10.5v-8.47c-11.07 0-20.57-2.6-24.79-6.27a6.11 6.11 0 0 0-2.34 3.73zM97.84 141.9c-.65-.44-2.08-1.72-2-3.11s1.47-2.55 2-3a.23.23 0 0 1 .09.08V135l-.09-.07a1.88 1.88 0 0 1-.23.16c-.06.09-2.37 1.63-2.58 3.68s2.39 3.84 2.53 3.88a2.61 2.61 0 0 1 .28.17l.09-.06v-.9a.31.31 0 0 1-.09.04z"/><path class="cls-6" d="M97.84 139.74a1.37 1.37 0 0 1-.47-.9 1.46 1.46 0 0 1 .47-.9l.09.12v-1l-.09-.06-.25.18a2.52 2.52 0 0 0-1 1.63 2.3 2.3 0 0 0 1 1.67l.27.19.09-.06v-1zM97.83 132.59l-.22.2a2.8 2.8 0 0 1-4.38-.32l-.55.41a3.46 3.46 0 0 0 5.15.61.93.93 0 0 0 .1 0v-.86zM97.82 144.3a8.33 8.33 0 0 0-8.17-.58l.55.6a7 7 0 0 1 7.31.67l.31.2.11-.07v-.88z"/><path class="cls-5" d="M100.65 138.74c-.2-2.05-2.52-3.59-2.58-3.68l-.14-.09v.9a4.81 4.81 0 0 1 1.9 2.92c.09 1.34-1.22 2.56-1.9 3v.9l.19-.11c.14 0 2.74-1.75 2.53-3.84z"/><path class="cls-5" d="M99.13 138.82a2.52 2.52 0 0 0-1-1.63l-.16-.12v1a1.26 1.26 0 0 1 .38.78 1.16 1.16 0 0 1-.38.79v1l.19-.13a2.3 2.3 0 0 0 .97-1.69z"/><path class="cls-6" d="M82.57 139.64c-.51-.59-1.57-2.2-1.12-3.52s2.07-2.09 2.69-2.4l.07.11.23-.87-.07-.09-.26.1c-.09.07-2.71 1-3.44 2.89s1.32 4.32 1.45 4.4l.22.23h.11l.23-.86z"/><path class="cls-6" d="M83.13 137.55a1.36 1.36 0 0 1-.23-1 1.45 1.45 0 0 1 .69-.75 1.47 1.47 0 0 0 .06.14l.25-.95-.07-.09-.29.11a2.54 2.54 0 0 0-1.42 1.31 2.27 2.27 0 0 0 .55 1.87l.22.26a.19.19 0 0 1 .1 0l.26-1s-.08.09-.12.1z"/><path class="cls-5" d="M86.1 137.3c.33-2-1.51-4.11-1.55-4.21l-.11-.13-.23.87a4.91 4.91 0 0 1 1.09 3.31c-.26 1.32-1.84 2.16-2.62 2.46l-.23.86.21-.06c.15 0 3.1-1.02 3.44-3.1z"/><path class="cls-5" d="M84.61 137a2.54 2.54 0 0 0-.59-1.84l-.12-.16-.25.95a1.25 1.25 0 0 1 .16.85 1.2 1.2 0 0 1-.56.67l-.26 1 .21-.08s1.21-.5 1.41-1.39z"/><path class="cls-6" d="M111.43 133.73c-.52.59-1.57 2.2-1.13 3.52s2.08 2.08 2.7 2.39l.07-.1.23.87-.07.08-.26-.09c-.09-.07-2.71-1-3.44-2.89s1.32-4.33 1.44-4.41l.23-.23h.11l.23.87z"/><path class="cls-6" d="M112 135.81a1.4 1.4 0 0 0-.23 1 1.43 1.43 0 0 0 .69.74.75.75 0 0 1 .06-.13l.25 1-.07.08-.29-.11A2.51 2.51 0 0 1 111 137a2.33 2.33 0 0 1 .56-1.88l.21-.25h.11l.25 1a.87.87 0 0 0-.13-.06z"/><path class="cls-5" d="M115 136.06c.33 2-1.51 4.11-1.55 4.22l-.11.13-.23-.87c.42-.63 1.34-2 1.08-3.31s-1.83-2.16-2.61-2.46l-.23-.87.21.06c.11.04 3.06 1.04 3.44 3.1z"/><path class="cls-5" d="M113.47 136.38a2.54 2.54 0 0 1-.58 1.83 1.83 1.83 0 0 0-.13.16l-.25-1a1.32 1.32 0 0 0 .16-.85 1.18 1.18 0 0 0-.57-.67l-.25-1 .21.08s1.21.55 1.41 1.45zM103 132.88l-.55-.42a2.82 2.82 0 0 1-4.41.33l-.13-.11v.86a3.72 3.72 0 0 0 2.53.82 3.62 3.62 0 0 0 2.56-1.48zM105.48 144.32l.55-.6a8.37 8.37 0 0 0-8.1.52v.88a1.37 1.37 0 0 0 .2-.13 7.21 7.21 0 0 1 7.35-.67z"/><path class="cls-6" d="M97.91 118.52a8.36 8.36 0 0 0-8.17-.58c.18.21.37.41.55.61a7 7 0 0 1 7.31.67 3.28 3.28 0 0 0 .31.2l.11-.07v-.88z"/><path class="cls-5" d="M105.57 118.55l.55-.6a8.37 8.37 0 0 0-8.1.52v.88l.2-.13a7.19 7.19 0 0 1 7.35-.67z"/></g></g></svg>