<svg xmlns="http://www.w3.org/2000/svg" viewBox="0 0 199.5 199.5"><defs><style>.cls-3{fill:#5a5b52}.cls-5{fill:#eac311}.cls-6{fill:#b48205}.cls-7{fill:#fff}.cls-8{fill:#b7b1a9}</style></defs><g id="Calque_2" data-name="Calque 2"><g id="Layer_1" data-name="Layer 1"><path fill="#a9deff" d="M0 0h199.5v199.5H0z"/><path fill="#5bc6ff" d="M199.5 74.92l-37.46-37.46-115.3 115.31 46.73 46.73H199.5V74.92z"/><path class="cls-3" d="M77.6 107.93a9.87 9.87 0 0 0 0 14l14-14a9.89 9.89 0 0 0-14 0z"/><path d="M72.49 97c-5.64 10.9-22 4.82-31.93 16.2-13.2 15.15-1.1 31.12 6.76 39l27.8-27.81a13.38 13.38 0 0 1 18.93-18.92L111 88.52C103 80.5 87 68.85 72.49 97z" fill="#ffe217"/><path class="cls-3" d="M77.6 107.93a9.87 9.87 0 0 0 0 14l14-14a9.89 9.89 0 0 0-14 0z"/><path class="cls-5" d="M75.12 105.46a13.39 13.39 0 0 0 0 18.92l2.48-2.48a9.88 9.88 0 0 1 14-14l2.47-2.47a13.38 13.38 0 0 0-18.95.03z"/><path class="cls-3" d="M91.58 121.9a9.87 9.87 0 0 1-14 0l14-14a9.89 9.89 0 0 1 0 14z"/><path class="cls-5" d="M102.51 127c-10.91 5.66-4.83 22-16.21 32-15.14 13.2-31.11 1.09-39-6.76l27.8-27.81a13.38 13.38 0 1 0 18.93-18.92L111 88.52c8 8.02 19.65 23.94-8.49 38.48z"/><path d="M91.58 121.9a9.87 9.87 0 0 1-14 0l14-14a9.89 9.89 0 0 1 0 14z"/><path class="cls-6" d="M94.05 124.38a13.38 13.38 0 0 1-18.93 0l2.48-2.48a9.88 9.88 0 1 0 14-14l2.47-2.47a13.39 13.39 0 0 1-.02 18.95z"/><path d="M60.51 139.64a10.57 10.57 0 0 0 7.36 3.36l4.75 4.74 1.63-4.5-2.38-2.38-6.62-6.62-3.07 3.07-2 2z"/><path class="cls-3" d="M59.86 139a10.53 10.53 0 0 1-3.37-7.35l-4.75-4.75 4.5-1.64 2.38 2.38 6.63 6.63-3.07 3.07-2 2c-.1-.14-.18-.23-.32-.34z"/><path class="cls-5" d="M41.18 113.75a12.38 12.38 0 0 1 .92-1c4.6-4.6 10.39-5.82 16-7 4.94-1 9.6-2 12.86-5.27a12.56 12.56 0 0 0 2.27-3.13 47.21 47.21 0 0 1 8.13-11.72C90 77 99.47 78.16 110.4 89.1l1.17-1.16C100 76.38 89.45 75.22 80.18 84.49a48.71 48.71 0 0 0-8.42 12.13 10.63 10.63 0 0 1-2 2.71c-2.91 2.92-7.34 3.84-12 4.83-5.57 1.16-11.88 2.49-16.83 7.43-.34.35-.67.7-1 1.07-13.48 15.47-1.52 31.77 6.81 40.11l1.16-1.17c-7.9-7.93-19.32-23.4-6.72-37.85z"/><path class="cls-6" d="M86.84 159.57c.37-.32.73-.66 1.07-1 5-4.95 6.27-11.25 7.44-16.82 1-4.69 1.91-9.12 4.82-12a10.83 10.83 0 0 1 2.72-2 49.17 49.17 0 0 0 12.11-8.43c5.49-5.49 7.31-11.54 5.42-18-1.28-4.34-4.18-8.72-8.87-13.41l-1.15 1.19c4.5 4.49 7.26 8.65 8.46 12.72 1.71 5.81 0 11.3-5 16.34a48 48 0 0 1-11.73 8.13 12.78 12.78 0 0 0-3.13 2.26c-3.25 3.26-4.23 7.92-5.26 12.86-1.18 5.6-2.4 11.4-7 16-.32.31-.65.62-1 .92-14.46 12.6-29.93 1.19-37.86-6.73l-1.16 1.17c8.36 8.33 24.66 20.28 40.12 6.8z"/><path class="cls-7" d="M59 129.54a.55.55 0 0 0-.77 0 .54.54 0 0 0 0 .78l5.46 5.46.78-.77z"/><path class="cls-8" d="M70 141.25a.56.56 0 0 0 0-.78L64.5 135l-.78.77 5.46 5.47a.56.56 0 0 0 .82.01zM66.77 140.35a.57.57 0 0 1 0 .82.58.58 0 0 1-.82-.82.57.57 0 0 1 .82 0zM65.25 138.82a.59.59 0 0 1 0 .82.58.58 0 0 1-.82-.82.59.59 0 0 1 .82 0zM63.72 137.3a.57.57 0 0 1 0 .82.56.56 0 0 1-.81 0 .57.57 0 0 1 0-.82.56.56 0 0 1 .81 0z"/><path class="cls-7" d="M62.2 135.78a.57.57 0 0 1 0 .82.58.58 0 0 1-.82-.82.57.57 0 0 1 .82 0zM60.68 134.26a.56.56 0 0 1 0 .81.57.57 0 0 1-.82 0 .56.56 0 0 1 0-.81.57.57 0 0 1 .82 0zM59.16 132.73a.59.59 0 0 1 0 .82.58.58 0 1 1 0-.82z"/><path d="M89.58 104.49l-30.37 28.6c-.22.21-.49.29-.59.18s0-.37.21-.58l30.38-28.6c.22-.21.49-.29.59-.18s.01.37-.22.58zM90.7 105.62l-30 29c-.22.21-.48.29-.59.19s0-.38.21-.59l30-29c.22-.21.49-.29.59-.19s.01.37-.21.59zM91.86 106.76l-29.61 29.36c-.22.22-.48.31-.59.2s0-.37.2-.59l29.62-29.36c.21-.21.48-.3.58-.19s.02.37-.2.58z"/><path class="cls-3" d="M66.23 140.89c-.11-.11 0-.37.18-.6L95 109.92c.21-.22.47-.32.58-.22s0 .37-.18.6l-28.6 30.37c-.2.22-.46.33-.57.22zM64.71 139.36c-.11-.1 0-.37.19-.59l29-29.94c.21-.23.48-.32.58-.21s0 .37-.19.59l-29 29.94c-.21.23-.47.32-.58.21zM63.19 137.84c-.11-.11 0-.37.19-.59l29.33-29.64c.22-.22.48-.31.58-.2s0 .37-.19.59l-29.33 29.64c-.21.22-.48.36-.58.2z"/><path class="cls-8" d="M162.49 48.93l.87-.87-3.27-3.26-.86.87 3.26 3.26z"/><path class="cls-8" transform="rotate(-44.95 156.0076745 50.54196495)" d="M155.39 48.24h1.22v4.61h-1.22z"/><path class="cls-8" transform="rotate(-44.99 152.2973421 55.84016152)" d="M151.7 53.54h1.22v4.61h-1.22z"/><path class="cls-3" d="M142.46 51.47l-54.57 51.31 4.41 4.42 52.95-52.94-2.79-2.79z"/><path d="M148.03 57.05l-51.31 54.56-4.42-4.41 52.95-52.94 2.78 2.79z"/><path class="cls-3" d="M146 43.16l-1-1.06a1.85 1.85 0 0 1 2.57-2.57l1.06 1.06zM140.74 46.85s-.47-.48-1.06-1.06a1.69 1.69 0 0 1 .23-2.35 1.67 1.67 0 0 1 2.34-.22l1.06 1.05zM149.72 37.87l-1.06-1.06a1.86 1.86 0 0 1 2.58-2.58l1.06 1.06z"/><path class="cls-7" d="M144.86 49.26l.86-.87-3.26-3.26-.86.86 3.26 3.27z"/><path class="cls-7" transform="rotate(-45 148.94102659 43.5066068)" d="M148.34 41.2h1.22v4.61h-1.22z"/><path class="cls-7" transform="rotate(-45.02 152.62286738 38.21268772)" d="M152.03 35.9h1.22v4.61h-1.22z"/><path class="cls-3" d="M154.75 34L152 36.74c.27 1.4-.69 4.39-3 6.74s-5.34 3.32-6.74 3.06l-2.77 2.77 3.51 7.16 9.48-9.47 9.44-9.44z"/><path class="cls-7" d="M146.63 48.82a1 1 0 1 1-1.34 0 1 1 0 0 1 1.34 0zM151.12 44.33a.95.95 0 1 1-1.34 0 .95.95 0 0 1 1.34 0zM155.61 39.84a.95.95 0 1 1-1.34 0 .95.95 0 0 1 1.34 0z"/><path d="M156.34 53.47l1.06 1.06A1.86 1.86 0 0 0 160 52l-1.07-1.06zM152.65 58.76l1.06 1.06a1.85 1.85 0 0 0 2.58-2.57l-1.06-1.06zM161.64 49.78l1.06 1.06a1.67 1.67 0 0 0 2.34-.22 1.69 1.69 0 0 0 .23-2.35l-1.06-1.06z"/><path d="M165.53 44.75l-2.77 2.77c-1.4-.27-4.38.7-6.74 3s-3.32 5.34-3.05 6.75l-2.77 2.77-7.2-3.57 9.48-9.47 9.44-9.44z"/><path class="cls-8" d="M150.68 52.88a.94.94 0 1 0-1.34 1.33.94.94 0 1 0 1.34-1.33zM155.17 48.38a.95.95 0 1 0 0 1.34.95.95 0 0 0 0-1.34zM159.66 43.89a.95.95 0 1 0 0 1.34.95.95 0 0 0 0-1.34z"/><path class="cls-7" d="M140.18 53.62l-.96.9 2.88 2.88.93-.93-2.85-2.85z"/><path class="cls-8" d="M145.89 59.33l-2.86-2.86-.93.93 2.89 2.89.9-.96z"/><path class="cls-7" d="M138.61 60.89l-2.99-2.99-.7.66 3.02 3.01.67-.68z"/><path class="cls-8" d="M137.94 61.57l3.01 3.01.66-.7-3-2.99-.67.68z"/><path class="cls-7" d="M134.54 64.97l-3.12-3.12-.7.66 3.14 3.14.68-.68z"/><path class="cls-8" d="M133.86 65.65l3.14 3.14.65-.71-3.11-3.11-.68.68z"/><path class="cls-7" d="M130.46 69.04l-3.24-3.24-.7.66 3.26 3.26.68-.68z"/><path class="cls-8" d="M129.78 69.72l3.27 3.26.66-.7-3.25-3.24-.68.68z"/><path class="cls-7" d="M126.38 73.12l-3.37-3.37-.7.66 3.39 3.39.68-.68z"/><path class="cls-8" d="M125.7 73.8l3.39 3.39.66-.7-3.37-3.37-.68.68z"/><path class="cls-7" d="M122.31 77.2l-3.5-3.5-.7.66 3.52 3.51.68-.67z"/><path class="cls-8" d="M121.63 77.87l3.51 3.52.66-.7-3.49-3.49-.68.67z"/><path class="cls-7" d="M118.23 81.27l-3.62-3.62-.7.66 3.65 3.64.67-.68z"/><path class="cls-8" d="M117.56 81.95l3.63 3.64.66-.7-3.62-3.62-.67.68z"/><path class="cls-7" d="M114.15 85.35l-3.74-3.75-.7.66 3.76 3.77.68-.68z"/><path class="cls-8" d="M113.47 86.03l3.77 3.76.66-.7-3.75-3.74-.68.68z"/><path class="cls-7" d="M109.74 89.76l-3.88-3.88-.7.66 3.9 3.9.68-.68z"/><path class="cls-8" d="M109.06 90.44l3.9 3.91.66-.71-3.88-3.88-.68.68z"/><path class="cls-7" d="M104.97 94.54l-4.03-4.03-.7.66 4.05 4.04.68-.67z"/><path class="cls-8" d="M104.29 95.21l4.04 4.05.67-.7-4.03-4.02-.68.67z"/><path class="cls-7" d="M101.25 98.26l-4.15-4.15-.7.66 4.17 4.17.68-.68z"/><path class="cls-8" d="M100.57 98.94l4.16 4.16.66-.7-4.14-4.14-.68.68z"/><path class="cls-7" d="M98.19 101.31l-4.24-4.23-.7.66 4.26 4.25.68-.68z"/><path class="cls-8" d="M97.51 101.99l4.26 4.26.66-.7-4.24-4.24-.68.68z"/><path class="cls-7" d="M95.37 104.13l-4.32-4.32-.7.65 4.35 4.35.67-.68z"/><path class="cls-8" d="M94.7 104.81l4.34 4.34.66-.7-4.33-4.32-.67.68z"/></g></g></svg>