<svg xmlns="http://www.w3.org/2000/svg" viewBox="0 0 199.5 199.5"><defs><style>.cls-1{fill:#5a5b52}.cls-3{fill:#fff}.cls-4{fill:#ffe217}.cls-5{fill:#eac311}</style></defs><g id="Calque_2" data-name="Calque 2"><g id="Layer_1" data-name="Layer 1"><path class="cls-1" d="M0 0h199.5v199.5H0z"/><path fill="#282828" d="M199.5 141.82l-53.64-53.65-5.91 5.91-65.46-65.46-9.71 137.97-7.06 6.26 26.65 26.65H199.5v-57.68z"/><path class="cls-3" d="M63 33.37a6.72 6.72 0 0 0 6.72 6.73V26.65A6.72 6.72 0 0 0 63 33.37z"/><path class="cls-4" d="M76.46 33.38a6.73 6.73 0 0 0-6.73-6.73V40.1a6.72 6.72 0 0 0 6.73-6.72zM57.72 157.22h12.02v-5.03h-5.2l-6.82 5.03z"/><path class="cls-3" d="M57.72 157.22h12.02v3.15H57.72zM57.72 168.76h12.02v4.09H57.72z"/><path class="cls-4" d="M60.35 160.37h9.39v8.39h-9.39z"/><path class="cls-5" d="M81.76 157.22H69.74v-5.03h5.19l6.83 5.03z"/><path class="cls-4" d="M69.74 157.22h12.02v3.14H69.74z"/><path class="cls-5" d="M69.74 160.37h9.39v8.39h-9.39z"/><path class="cls-4" d="M69.74 49.48h-5.2v51.3h5.2v-51.3z"/><path class="cls-3" d="M69.74 100.78h-5a2.84 2.84 0 0 0 0 5.67h5zM69.74 106.45h-7.35a2 2 0 0 0 0 4.09h7.35zM64.78 146.52a2.84 2.84 0 0 0 0 5.67h5v-5.67z"/><path class="cls-4" d="M69.74 142.43h-7.35a2 2 0 0 0 0 4.09h7.35zM69.74 110.54h-7.35v31.89h7.36z"/><path class="cls-5" d="M74.69 100.78h.24v-51.3h-5.19v51.3h4.95z"/><path class="cls-4" d="M69.74 106.45h5a2.84 2.84 0 0 0 0-5.67h-5zM69.74 110.54h7.34a2 2 0 0 0 0-4.09h-7.34zM77.53 149.35a2.84 2.84 0 0 0-2.84-2.83h-5v5.67h5a2.84 2.84 0 0 0 2.84-2.84z"/><path class="cls-5" d="M69.74 146.52h7.34a2 2 0 1 0 0-4.09h-7.34z"/><path class="cls-3" d="M64.78 43.82a2.83 2.83 0 1 0 0 5.66h5v-5.66z"/><path class="cls-4" d="M69.73 39.73h-7.34a2 2 0 0 0 0 4.09h7.34zM77.52 46.65a2.83 2.83 0 0 0-2.83-2.83h-5v5.66h5a2.82 2.82 0 0 0 2.83-2.83z"/><path class="cls-5" d="M69.73 43.82h7.35a2 2 0 0 0 0-4.09h-7.35zM69.74 142.43h7.34v-31.89h-7.34z"/><path class="cls-4" d="M84.53 168.76H69.74v4.09h30.79v-4.09h-16zM131.25 98.66l-49.49 58.56-2.63 3.15v8.39h5.4l53.99-75.91-7.27 5.81z"/><path class="cls-5" d="M105.67 94.42C90.22 86.84 93.4 61.59 74.93 57.77v16.67c4.49.46 8.41 3.26 12.09 10.25 3.83 7.26 7.82 13.33 16.4 16.4 4.49 1.61 15.63 2.33 27.83-2.43l7.27-5.81c-9.59-7.06-15.52 10.06-32.85 1.57z"/><path class="cls-4" d="M105.67 94.42c17.31 8.49 23.26-8.63 32.85-1.57l7.34-4.68c-7.33-8.24-15.83-2.76-20.92-.27-5.7 2.78-12 5.93-17.55 3.2-4.25-2.1-4.83-10.45-7.39-17.81-3.33-9.45-8.31-22.49-25-23.81v8.29c18.4 3.82 15.22 29.07 30.67 36.65z"/><path class="cls-5" d="M138.52 92.85l-53.99 75.91h13.45l47.88-80.59-7.34 4.68z"/><path class="cls-3" d="M81.22 55.37h1.08v109.19h-1.08z"/><path class="cls-3" transform="matrix(1 -.00122 .00122 1 -.13 .1)" d="M87.99 60.57h1.07v94.13h-1.07z"/><path class="cls-3" d="M94.65 72.05h1.08v74.19h-1.08z"/><path class="cls-3" transform="rotate(-89.82 101.90238752 112.9028094)" d="M77.18 112.36h49.46v1.07H77.18z"/><path class="cls-3" d="M108.08 93.93h1.07v35.1h-1.07zM114.8 93.93h1.07v27.05h-1.07zM121.52 92.13h1.08v20.24h-1.08zM128.23 89.08h1.08v14.88h-1.08z"/><path class="cls-1" d="M82.76 55.37a1 1 0 1 1-1-1 1 1 0 0 1 1 1zM89.53 60.57a1 1 0 1 1-1-1 1 1 0 0 1 1 1zM96.19 72.05a1 1 0 1 1-1-1 1 1 0 0 1 1 1zM102.91 88.17a1 1 0 1 1-1-1 1 1 0 0 1 1 1zM109.62 93.93a1 1 0 1 1-1-1 1 1 0 0 1 1 1zM116.34 93.93a1 1 0 1 1-1-1 1 1 0 0 1 1 1zM123.06 92.13a1 1 0 1 1-1-1 1 1 0 0 1 1 1zM129.77 89.08a1 1 0 1 1-1-1 1 1 0 0 1 1 1zM129.77 104a1 1 0 1 1-2 0 1 1 0 1 1 2 0zM123.06 112.37a1 1 0 1 1-1-1 1 1 0 0 1 1 1zM116.34 121a1 1 0 1 1-1-1 1 1 0 0 1 1 1zM109.62 129a1 1 0 1 1-1-1 1 1 0 0 1 1 1zM102.91 137.63a1 1 0 1 1-1-1 1 1 0 0 1 1 1zM96.19 146.24a1 1 0 1 1-1-1 1 1 0 0 1 1 1zM89.53 154.71a1 1 0 1 1-1-1 1 1 0 0 1 1 1zM82.76 164.57a1 1 0 1 1-1-1 1 1 0 0 1 1 1z"/></g></g></svg>