<svg xmlns="http://www.w3.org/2000/svg" viewBox="0 0 199.5 199.5"><defs><style>.cls-13,.cls-3{fill:#fff}.cls-4{fill:#ffe217}.cls-5{fill:#ff5430}.cls-6{fill:#eac311}.cls-7{fill:#b7b1a9}.cls-8{fill:#c60000}.cls-9{fill:#72c56c}.cls-10{fill:#2eb045}.cls-11{fill:#a9deff}.cls-12{fill:#5bc6ff}.cls-13{opacity:.5}</style></defs><g id="Calque_2" data-name="Calque 2"><g id="Layer_1" data-name="Layer 1"><path fill="#5a5b52" d="M0 0h199.5v199.5H0z"/><path fill="#282828" d="M199.5 124.46l-73.74-73.74-24.73 32.86 55.43 55.44-3.74 3.74-82.2-82.21L42.7 88.37 153.84 199.5h45.66v-75.04z"/><path class="cls-3" d="M73.51 100.44c4.48 2.28 9.42 6.79 13.32 10.69a65 65 0 0 1 6.91 8.2 170.56 170.56 0 0 0 14.76 18c11.54 12.16 19.13 11.82 20.74 10.21l.21-.23-51.4-51.41z"/><path class="cls-4" d="M56.61 74.46L42.7 88.37l.79.73a32.78 32.78 0 0 0 11.18 6.79l11.69-11.68z"/><path class="cls-5" d="M36.88 54.73c-5.22 5.22-6 12.46-3.56 19.64l11.59-11.6z"/><path class="cls-6" d="M70.52 60.55L56.61 74.46l9.75 9.75L78 72.53a33.13 33.13 0 0 0-6.79-11.19c-.21-.27-.44-.53-.69-.79z"/><path class="cls-7" d="M129.45 147.3l.24-.22c1.6-1.6 1.94-9.2-10.23-20.73a169.51 169.51 0 0 0-18-14.76 65 65 0 0 1-8.2-6.91c-3.9-3.9-8.4-8.84-10.69-13.31l-4.52 4.53z"/><path class="cls-8" d="M56.52 51.16c-7.18-2.47-14.42-1.65-19.64 3.57l8 8z"/><path class="cls-9" d="M77.86 95.71l-7.4-7.39-4.1-4.11-11.69 11.68c4.39 1.57 9 2.23 14.66 3.11a13.18 13.18 0 0 1 4.18 1.44l4.54-4.54z"/><path class="cls-10" d="M70.46 88.32l7.4 7.39.19.19 4.54-4.53a13.18 13.18 0 0 1-1.44-4.18c-.88-5.64-1.54-10.28-3.11-14.66L66.36 84.21z"/><path class="cls-11" d="M44.91 62.77l-11.59 11.6a35.48 35.48 0 0 0 9.38 14l13.91-13.91z"/><path class="cls-12" d="M56.61 74.46l13.91-13.91a35.62 35.62 0 0 0-14-9.39L44.91 62.77z"/><path class="cls-13" d="M53 86.74c-10.31-10.31-13.93-24-9.65-33.51a13.43 13.43 0 0 0-4.58 3c-7 7-4.82 20.4 4.79 30 6.34 6.34 14.34 9.4 21.05 8.76A41.54 41.54 0 0 1 53 86.74z"/><path class="cls-3" d="M123.53 97.59c3.73 3.37 7.33 9 10.09 13.77a64.11 64.11 0 0 1 4.56 9.71 169.46 169.46 0 0 0 9.59 21.19c8 14.74 15.43 16.37 17.39 15.24l.27-.17-36.35-63z"/><path class="cls-4" d="M113.92 68.12L96.89 78l.57.91a32.92 32.92 0 0 0 9.05 9.45l14.31-8.26z"/><path class="cls-5" d="M100 44c-6.42 3.64-9.09 10.43-8.56 18l14.22-8.21z"/><path class="cls-6" d="M131 58.29l-17 9.83 6.9 11.94 14.31-8.26a33.05 33.05 0 0 0-3.67-12.57z"/><path class="cls-7" d="M165.43 157.33c.09-.05.19-.09.28-.15 2-1.13 4.26-8.38-4.51-22.67a169.56 169.56 0 0 0-13.55-18.91 64.44 64.44 0 0 1-6.12-8.8c-2.76-4.78-5.84-10.71-6.89-15.62l-5.56 3.2z"/><path class="cls-8" d="M119.87 45.59c-6.3-4.24-13.51-5.33-19.9-1.64l5.69 9.85z"/><path class="cls-9" d="M129 94.14l-5.23-9-2.9-5-14.31 8.26c3.82 2.65 8.14 4.5 13.35 6.8a13.23 13.23 0 0 1 3.67 2.47l5.55-3.21z"/><path class="cls-10" d="M123.72 85.09l5.23 9 .13.24 5.56-3.2a13.68 13.68 0 0 1-.31-4.41c.61-5.67 1.18-10.33.8-15l-14.31 8.26z"/><path class="cls-11" d="M105.66 53.8L91.44 62a35.56 35.56 0 0 0 5.45 16l17-9.84z"/><path class="cls-12" d="M113.92 68.12l17-9.83a35.51 35.51 0 0 0-11.09-12.7l-14.17 8.21z"/><path class="cls-13" d="M107.24 79c-7.24-12.59-7.24-26.78-.66-34.82a13.28 13.28 0 0 0-5.19 1.69c-8.52 4.92-9.93 18.46-3.14 30.22 4.49 7.77 11.42 12.8 18.07 13.92A41.69 41.69 0 0 1 107.24 79z"/></g></g></svg>