<svg xmlns="http://www.w3.org/2000/svg" viewBox="0 0 199.5 199.51"><defs><style>.cls-3{fill:#eac311}.cls-4{fill:#ffe217}.cls-5{fill:#b48205}.cls-6{fill:#fff}</style></defs><g id="Calque_2" data-name="Calque 2"><g id="Layer_1" data-name="Layer 1"><path fill="#a9deff" d="M0 0h199.5v199.51H0z"/><path fill="#5bc6ff" d="M199.5 101.64l-50.74-50.71-94.6 97.56 51.01 51.01h94.33v-97.86z"/><path class="cls-3" d="M56 53.28v96a6.2 6.2 0 0 0 3.58 0v-95c-1.24-.28-2.44-.66-3.58-1z"/><path class="cls-4" d="M50.53 51.63v92.77a4.81 4.81 0 0 0 1.79 2.76v-95zM54.15 52.76v95.73a8.89 8.89 0 0 0 1.8.75v-96z"/><path class="cls-3" d="M66.83 56v90.2a6.18 6.18 0 0 0 3.61-.25V56.71c-1.2-.22-2.44-.47-3.61-.71z"/><path class="cls-4" d="M65 55.59v90a7.58 7.58 0 0 0 1.79.62V56zM61.38 54.73v87a4.4 4.4 0 0 0 1.8 2.63v-89.2z"/><path class="cls-3" d="M110.74 59.09v67.22a7.51 7.51 0 0 0 3.63-1.28V58.79q-1.81.21-3.63.3z"/><path class="cls-4" d="M105.25 59.38v64c0 .66.7 1.51 1.81 2.12V59.31zM108.93 59.21v67a6.73 6.73 0 0 0 1.81.12V59.09z"/><path class="cls-3" d="M121.72 57.93v61.52a8.23 8.23 0 0 0 3.62-1.52V57.37c-1.21.2-2.41.39-3.62.56z"/><path class="cls-4" d="M116.23 58.61v58.32c0 .67.71 1.46 1.82 2V58.4zM119.91 58.17v61.3a6.88 6.88 0 0 0 1.81 0V57.93z"/><path class="cls-3" d="M132.66 56v55.84a8.76 8.76 0 0 0 3.61-1.79V55.19q-1.81.41-3.61.81z"/><path class="cls-4" d="M130.86 56.36V112a6.62 6.62 0 0 0 1.8-.13V56zM127.2 57.05v52.64c0 .67.7 1.41 1.8 1.86V56.72q-.9.18-1.8.33z"/><path class="cls-3" d="M143.55 53.28v50.1a9.37 9.37 0 0 0 3.58-2V52.21c-1.2.37-2.39.73-3.58 1.07z"/><path class="cls-4" d="M141.76 53.78v49.86a6.93 6.93 0 0 0 1.8-.26v-50.1zM138.11 54.73v46.9c0 .66.69 1.36 1.8 1.73V54.27z"/><path class="cls-3" d="M99.75 59.48v72.9a7 7 0 0 0 3.63-1V59.44c-1.21.02-2.38.04-3.63.04z"/><path class="cls-4" d="M97.93 59.47v72.67a6.72 6.72 0 0 0 1.82.24v-72.9zM94.25 59.38v69.71a3.32 3.32 0 0 0 1.81 2.25v-71.9c-.6-.02-1.21-.03-1.81-.06z"/><path class="cls-3" d="M88.75 59.09v78.6a6.73 6.73 0 0 0 3.63-.76V59.31c-1.21-.06-2.38-.13-3.63-.22z"/><path class="cls-4" d="M83.26 58.61V134a3.66 3.66 0 0 0 1.81 2.38V58.79zM86.94 59v78.37a7.18 7.18 0 0 0 1.81.37V59.09z"/><path class="cls-3" d="M77.77 57.93v84.28a6.44 6.44 0 0 0 3.62-.5V58.4c-1.2-.15-2.39-.3-3.62-.47z"/><path class="cls-4" d="M76 57.66v84.05a7.35 7.35 0 0 0 1.81.5V57.93zM72.3 57.05v81.09a4 4 0 0 0 1.8 2.5V57.36z"/><path class="cls-5" d="M59.54 54.26v95c1.14-.37 1.85-1.08 1.85-1.76V54.73z"/><path class="cls-6" d="M52.32 52.2v95a10.25 10.25 0 0 0 1.83 1.33V52.76z"/><path class="cls-5" d="M70.44 56.71V146c1.14-.45 1.86-1.21 1.86-1.89v-87z"/><path class="cls-6" d="M63.18 55.16v89.21a8.9 8.9 0 0 0 1.82 1.21v-90z"/><path class="cls-5" d="M81.39 58.4v83.31c1.15-.53 1.87-1.34 1.87-2v-81.1z"/><path class="cls-6" d="M74.1 57.36v83.28a8.22 8.22 0 0 0 1.9 1.07V57.66z"/><path class="cls-5" d="M92.38 59.31v77.62c1.15-.61 1.87-1.47 1.87-2.15v-75.4z"/><path class="cls-6" d="M85.07 58.79v77.59a7.79 7.79 0 0 0 1.87.94V59z"/><path class="cls-5" d="M103.38 59.44v71.93c1.14-.7 1.87-1.61 1.87-2.28V59.38z"/><path class="cls-6" d="M96.06 59.44v71.9a7 7 0 0 0 1.87.8V59.47z"/><path class="cls-5" d="M114.37 58.79V125a3.68 3.68 0 0 0 1.86-2.41v-64z"/><path class="cls-6" d="M107.06 59.31v66.21a6.46 6.46 0 0 0 1.87.67v-67z"/><path class="cls-5" d="M125.34 57.37v60.56a4.11 4.11 0 0 0 1.86-2.55V57.05c-.63.12-1.2.22-1.86.32z"/><path class="cls-6" d="M118.05 58.4v60.53a6.55 6.55 0 0 0 1.86.54v-61.3z"/><path class="cls-5" d="M136.26 55.18v54.86a4.49 4.49 0 0 0 1.84-2.67V54.73z"/><path class="cls-6" d="M129 56.72v54.83a5.3 5.3 0 0 0 1.86.41v-55.6q-.93.2-1.86.36z"/><path class="cls-5" d="M147.13 101.34a4.93 4.93 0 0 0 1.87-2.81v-46.9l-1.83.58z"/><path class="cls-6" d="M139.91 54.27v49.09a5.27 5.27 0 0 0 1.84.28V53.78zM56 50.41v1.4c1.54.44 2.78 1.43 2.78 2.23s-1.25 1.15-2.78.71v1.4c3 .85 5.43.16 5.43-1.42s-2.49-3.46-5.43-4.32z"/><path class="cls-4" d="M58.73 54c0-.8-1.25-1.79-2.78-2.23v2.94c1.53.48 2.78.15 2.78-.71z"/><path class="cls-5" d="M53.17 52.46c0-.81 1.24-1.09 2.78-.65v-1.4c-3-.85-5.42-.36-5.42 1.22S53 55.29 56 56.15v-1.4c-1.59-.44-2.83-1.48-2.83-2.29z"/><path class="cls-3" d="M53.17 52.46c0 .81 1.24 1.85 2.78 2.29v-2.94c-1.54-.44-2.78-.16-2.78.65z"/><path class="cls-6" d="M66.83 53.12v1.4c1.55.33 2.8 1.23 2.81 2s-1.26 1.23-2.81.9v1.4c3 .64 5.47-.22 5.47-1.81s-2.45-3.24-5.47-3.89z"/><path class="cls-4" d="M69.64 56.56c0-.81-1.26-1.71-2.81-2v2.94c1.55.29 2.81-.13 2.81-.94z"/><path class="cls-5" d="M64 55.37c0-.81 1.24-1.19 2.79-.85v-1.4c-3-.64-5.45 0-5.45 1.61s2.44 3.48 5.45 4.13v-1.4c-1.5-.33-2.79-1.28-2.79-2.09z"/><path class="cls-3" d="M64 55.37c0 .81 1.25 1.76 2.79 2.09v-2.94c-1.51-.34-2.79.04-2.79.85z"/><path class="cls-6" d="M77.77 55.06v1.4c1.56.22 2.82 1 2.82 1.84s-1.26 1.32-2.82 1.1v1.39c3 .44 5.49-.6 5.49-2.18s-2.46-3.12-5.49-3.55z"/><path class="cls-4" d="M80.59 58.3c0-.81-1.26-1.62-2.82-1.84v2.94c1.56.22 2.81-.29 2.82-1.1z"/><path class="cls-5" d="M75 57.5c0-.81 1.25-1.26 2.8-1v-1.4c-3-.43-5.47.41-5.47 2s2.45 3.32 5.47 3.74V59.4c-1.58-.22-2.8-1.08-2.8-1.9z"/><path class="cls-3" d="M75 57.5c0 .82 1.25 1.68 2.8 1.9v-2.94c-1.58-.22-2.8.23-2.8 1.04z"/><path class="cls-6" d="M88.75 56.22v1.4c1.56.11 2.82.84 2.82 1.65s-1.26 1.4-2.82 1.29V62c3 .21 5.5-1 5.5-2.58s-2.47-2.98-5.5-3.2z"/><path class="cls-4" d="M91.57 59.27c0-.81-1.26-1.54-2.82-1.65v2.94c1.56.11 2.82-.48 2.82-1.29z"/><path class="cls-5" d="M85.93 58.87c0-.81 1.26-1.36 2.82-1.25v-1.4c-3-.21-5.49.8-5.49 2.39s2.46 3.13 5.49 3.35v-1.4c-1.56-.1-2.82-.88-2.82-1.69z"/><path class="cls-3" d="M85.93 58.87c0 .81 1.26 1.59 2.82 1.69v-2.94c-1.56-.11-2.82.44-2.82 1.25z"/><path class="cls-6" d="M99.75 56.61V58c1.55 0 2.82.64 2.82 1.45S101.3 61 99.75 61v1.4c3 0 5.5-1.38 5.5-3s-2.46-2.78-5.5-2.79z"/><path class="cls-4" d="M102.57 59.46c0-.81-1.27-1.45-2.82-1.45V61c1.55 0 2.82-.73 2.82-1.54z"/><path class="cls-5" d="M96.93 59.46c0-.81 1.26-1.45 2.82-1.45v-1.4c-3 0-5.5 1.19-5.5 2.77s2.46 3 5.5 3V61c-1.56 0-2.82-.73-2.82-1.54z"/><path class="cls-3" d="M96.93 59.46c0 .81 1.26 1.49 2.82 1.49V58c-1.56 0-2.82.65-2.82 1.46z"/><path class="cls-6" d="M110.74 56.22v1.4c1.56-.11 2.82.44 2.82 1.25s-1.26 1.59-2.82 1.69V62c3-.22 5.49-1.77 5.49-3.35s-2.45-2.65-5.49-2.43z"/><path class="cls-4" d="M113.56 58.87c0-.81-1.26-1.36-2.82-1.25v2.94c1.56-.1 2.82-.88 2.82-1.69z"/><path class="cls-5" d="M107.93 59.27c0-.81 1.26-1.54 2.81-1.65v-1.4c-3 .22-5.49 1.58-5.49 3.16s2.46 2.8 5.49 2.58v-1.4c-1.55.11-2.82-.48-2.81-1.29z"/><path class="cls-3" d="M107.93 59.27c0 .81 1.26 1.4 2.81 1.29v-2.94c-1.55.11-2.82.84-2.81 1.65z"/><path class="cls-6" d="M121.72 55.06v1.39c1.55-.21 2.81.24 2.81 1s-1.26 1.68-2.81 1.9v1.4c3-.43 5.48-2.16 5.48-3.75s-2.45-2.37-5.48-1.94z"/><path class="cls-4" d="M124.53 57.5c0-.8-1.26-1.26-2.81-1v2.9c1.55-.22 2.81-1.08 2.81-1.9z"/><path class="cls-5" d="M118.91 58.3c0-.81 1.26-1.62 2.81-1.85v-1.39c-3 .43-5.49 2-5.49 3.55s2.46 2.62 5.49 2.19v-1.4c-1.55.22-2.81-.29-2.81-1.1z"/><path class="cls-3" d="M118.91 58.3c0 .81 1.26 1.32 2.81 1.1v-2.95c-1.55.23-2.81 1.04-2.81 1.85z"/><path class="cls-6" d="M132.66 53.12v1.4c1.55-.33 2.8 0 2.8.85s-1.25 1.76-2.8 2.09v1.4c3-.65 5.45-2.55 5.45-4.13s-2.43-2.25-5.45-1.61z"/><path class="cls-4" d="M135.46 55.37c0-.81-1.25-1.18-2.8-.85v2.94c1.54-.33 2.8-1.28 2.8-2.09z"/><path class="cls-5" d="M129.86 56.56c0-.81 1.25-1.71 2.8-2v-1.4c-3 .65-5.46 2.35-5.46 3.93s2.45 2.45 5.46 1.81v-1.4c-1.55.29-2.8-.13-2.8-.94z"/><path class="cls-3" d="M129.86 56.56c0 .81 1.25 1.23 2.8.9v-2.94c-1.55.33-2.8 1.23-2.8 2.04z"/><path class="cls-6" d="M143.55 50.41v1.4c1.53-.44 2.78-.16 2.78.65s-1.25 1.85-2.78 2.29v1.4c3-.86 5.41-2.93 5.41-4.52s-2.41-2.07-5.41-1.22z"/><path class="cls-4" d="M146.33 52.46c0-.81-1.24-1.09-2.78-.65v2.94c1.53-.44 2.78-1.48 2.78-2.29z"/><path class="cls-5" d="M140.76 54.05c0-.82 1.25-1.8 2.79-2.24v-1.4c-3 .86-5.44 2.74-5.44 4.32s2.44 2.27 5.44 1.42v-1.4c-1.55.44-2.79.11-2.79-.7z"/><path class="cls-3" d="M140.76 54.05c0 .81 1.25 1.14 2.79.7v-2.94c-1.55.44-2.79 1.42-2.79 2.24z"/><path class="cls-6" d="M150.35 66.93l-1.39.45V69a160.14 160.14 0 0 1-49.21 7.8A159.89 159.89 0 0 1 50.52 69v-1.92l-1.38-.46a.69.69 0 0 0-1 .71v3.41a160.79 160.79 0 0 0 51.56 8.62 160.68 160.68 0 0 0 51.55-8.62v-3.1a.69.69 0 0 0-.9-.71z"/><path class="cls-5" d="M114.5 78.65a161.45 161.45 0 0 1-48.84 6.95 157.61 157.61 0 0 0 34.09 3.75 160.49 160.49 0 0 0 50.6-8.3 1.49 1.49 0 0 0 1-1.35v-9a162.9 162.9 0 0 1-36.85 7.95z"/><path class="cls-3" d="M99.75 79.36a160.79 160.79 0 0 1-51.56-8.62v9a1.5 1.5 0 0 0 1 1.35 168.06 168.06 0 0 0 16.47 4.51 161.45 161.45 0 0 0 48.84-6.95q-7.36.71-14.75.71z"/></g></g></svg>