<svg xmlns="http://www.w3.org/2000/svg" viewBox="0 0 199.5 199.51"><defs><style>.cls-3{fill:#5a5b52}.cls-4{fill:#fcdc56}.cls-5{fill:#eac311}.cls-6{fill:#fff}</style></defs><g id="Calque_2" data-name="Calque 2"><g id="Layer_1" data-name="Layer 1"><path fill="#31ca72" d="M0 0h199.5v199.51H0z"/><path fill="#2ea05c" d="M199.5 116.35l-40.73-40.73-20.69 20.14 2.67 17.74L73.1 45.86l-4.03 4.03-1.34-1.98-10.63 3.24-12.59 11.64-18.05 9.91 126.8 126.8h46.24v-83.15z"/><path class="cls-3" d="M112.78 141.12l-2.25-3.83-5.84-.73-30.99-62.1 2.95-5.52-1.9-3.92-3.99 7.48 33.72 67.57 8.3 1.05z"/><path class="cls-4" d="M102.38 139.81l2.1.26L70.76 72.5l-1.01 1.91 32.63 65.4z"/><path class="cls-3" d="M50.79 50.17l-2.52 3.81-1.68-1.81 2.15-3.04 2.05 1.04zM45.42 59.12l-13.41 4.35-2.52 4.2 18.63-6.05-2.7-2.5z"/><path d="M51.18 64.46l-3.06-2.84-18.63 6.05-3.03 5.03 24.72-8.24z"/><path class="cls-5" d="M114.19 141.77L68.44 50.1c-1.23-2.48-11.92-9-20.32 11.52l3.06 2.84c8.26-17.11 15.3-12.11 16.61-9.46l45.75 91.68c6.73 13.49 21.11 20 34.6 13.29a25.64 25.64 0 0 0 11.94-12 70.32 70.32 0 0 1-11.28 7.13c-13.49 6.69-27.88.16-34.61-13.33z"/><path class="cls-4" d="M161.94 125.75l-11.3-27.21c-1.54-3.08-2.9-17 7.23-15.92l-30.45-16.44c-15.16 13.95-9.73 32.25 9.62 68.56 1.53 3.07 2.33 5.78.78 6.49s-3.41-1.22-5.4-4L77.15 51.17c-7.65-13.38-22-13.94-31.72 7.95l2.69 2.5c8.61-20.12 19.09-14 20.32-11.52l45.75 91.67c6.73 13.49 21.12 20 34.61 13.29a70.32 70.32 0 0 0 11.28-7.13c2.67-5.75 5.06-13.93 1.86-22.18z"/><path class="cls-3" d="M34.8 60.7l3.39 10.16 1.49-.49-3.39-10.16-1.49.49zM40.52 58.8l3.39 10.17 1.5-.49-3.39-10.16-1.5.48z"/><path d="M36.29 60.21l3.39 10.16 4.23-1.4-3.39-10.17-4.23 1.41z"/><path class="cls-6" d="M138 123.5c-5.8-8.83-18.79-36.17-9.33-46.06l2.42 1.35c-6.57 6.9 2.04 30.13 6.91 44.71z"/><path class="cls-5" d="M132.67 89.22c-11.13-3.29-19.66-9.64-22.4-15.91 1.06 6.69 9.83 14 21.83 17.55 11.77 3.48 22.91 2.22 27.59-2.57-5.8 3.55-16.14 4.15-27.02.93z"/><path class="cls-6" d="M161.73 85a7.4 7.4 0 0 0 .27-2c-.27.19-.54.41-.84.58-4.51 5-15.76 6.46-27.76 2.92-12.4-3.63-21.4-11.35-21.91-18.22 0-.12-.1-.24-.15-.38a7.7 7.7 0 0 0-.9 1.9 8 8 0 0 0-.17 3.51c2.74 6.27 11.27 12.62 22.4 15.91 10.88 3.22 21.22 2.62 27-.93a7.89 7.89 0 0 0 2.06-3.29z"/><path class="cls-4" d="M111.44 67.74c0 4.12 3.26 8.61 8.49 12.37a5.65 5.65 0 0 1-.61-4.26c1.37-4.58 9.55-6.21 18.3-3.63s14.72 8.4 13.36 13a5.64 5.64 0 0 1-2.81 3.25c6.43-.32 11.55-2.32 13.83-5.77-.07-7-9.18-15-21.93-18.8s-24.76-2-28.63 3.84z"/><path class="cls-6" d="M139.33 68.17c10.09 3 17.92 8.58 20.95 14.28-.55-6.36-8.85-13.5-20.36-16.9-11.87-3.52-23-1.86-26.63 3.58 5.52-3.47 15.53-4.07 26.04-.96z"/><path class="cls-5" d="M137.62 72.22c-8.75-2.58-16.93-1-18.3 3.63a5.65 5.65 0 0 0 .61 4.26 47.31 47.31 0 0 0 28.24 8.35 5.64 5.64 0 0 0 2.83-3.25c1.34-4.59-4.65-10.42-13.38-12.99z"/><path class="cls-3" d="M90 67.48a4.58 4.58 0 1 1-6.54-1.79A4.81 4.81 0 0 1 90 67.48z"/><path class="cls-4" d="M91.47 66.57a3 3 0 0 1-.93 4.1l-1.18.76a3 3 0 0 1-3.19-5l1.19-.75a3 3 0 0 1 4.11.89z"/><path class="cls-3" d="M98.91 81.52a4.58 4.58 0 1 1-6.53-1.8 4.79 4.79 0 0 1 6.53 1.8z"/><path class="cls-4" d="M100.35 80.6a3 3 0 0 1-.92 4.11l-1.19.75a3 3 0 0 1-3.18-5l1.18-.75a3 3 0 0 1 4.11.89z"/><path class="cls-3" d="M107.8 95.55a4.58 4.58 0 1 1-6.53-1.79 4.79 4.79 0 0 1 6.53 1.79z"/><path class="cls-4" d="M109.24 94.65a3 3 0 0 1-.93 4.09l-1.18.76a3 3 0 1 1-3.18-5l1.18-.75a3 3 0 0 1 4.11.9z"/><path class="cls-3" d="M116.69 109.59a4.58 4.58 0 1 1-6.54-1.79 4.82 4.82 0 0 1 6.54 1.79z"/><path class="cls-4" d="M118.12 108.67a3 3 0 0 1-.92 4.11l-1.18.75a3 3 0 1 1-3.19-5l1.19-.74a3 3 0 0 1 4.1.88z"/><path class="cls-3" d="M125.57 123.62a4.58 4.58 0 1 1-6.53-1.79 4.8 4.8 0 0 1 6.53 1.79z"/><path class="cls-4" d="M127 122.71a3 3 0 0 1-.92 4.11l-1.19.75a3 3 0 0 1-3.18-5l1.18-.75a3 3 0 0 1 4.11.89z"/></g></g></svg>