<svg xmlns="http://www.w3.org/2000/svg" viewBox="0 0 199.5 199.51"><defs><style>.cls-3{fill:#ffe217}.cls-4{fill:#eac311}.cls-7{fill:#fff}.cls-8{fill:#5a5b52}</style></defs><g id="Calque_2" data-name="Calque 2"><g id="Layer_1" data-name="Layer 1"><path fill="#31ca72" d="M0 0h199.5v199.5H0z"/><path fill="#2ea05c" d="M199.5 103.41L156.69 60.6l-90.77 4.82-25.25 19.77 1.94 53.45 60.86 60.87 96.03-.01v-96.09z"/><path class="cls-3" d="M33.18 81.5V118c0 10.14 6.23 19.38 16.45 26.47v-63zM99.76 112.82a81.38 81.38 0 0 1-19.1-2.23v46a107.76 107.76 0 0 0 19.09 1.7z"/><path class="cls-4" d="M118.85 110.59a81.36 81.36 0 0 1-19.09 2.23v45.5a107.79 107.79 0 0 0 19.1-1.7zM149.88 81.5v63c10.21-7.09 16.44-16.33 16.44-26.47V81.5z"/><path d="M50.69 91.37V81.5h-1.06v63c8.15 5.65 18.84 9.93 31 12.14v-46c-14.08-3.45-25.13-10.49-29.94-19.27z" fill="#5bc6ff"/><path d="M149.35 81.5v9.7c-.11-.07-.2-.15-.3-.22-4.7 9-15.89 16.16-30.2 19.61v46c12.19-2.21 22.87-6.49 31-12.14v-63z" fill="#ff5430"/><path class="cls-7" d="M99.75 41.19C63 41.19 33.18 59.24 33.18 81.5S63 121.81 99.75 121.81s66.57-18 66.57-40.31-29.8-40.31-66.57-40.31zm0 71.63C71.19 112.82 48 98.8 48 81.5s23.19-31.32 51.75-31.32 51.72 14 51.72 31.32-23.15 31.32-51.71 31.32z"/><path class="cls-4" d="M149.05 91a20.24 20.24 0 0 0 2.42-9.48c0-17.3-23.15-31.32-51.72-31.32S48 64.2 48 81.5a20.25 20.25 0 0 0 2.46 9.5c12.18-8.14 29.72-13.29 49.29-13.29s37.12 5.13 49.3 13.29z"/><path class="cls-7" d="M152.65 116.26a35.7 35.7 0 0 1-4 3.79c2.16 1.56 3.43 3.64 3.26 5.83-.34 4.19-5.76 7.18-12.12 6.68a14.36 14.36 0 0 1-8.65-3.52c-2.1.67-4.32 1.22-6.58 1.71 3.11 3.46 8.53 6 14.86 6.5 10.28.81 19.05-4 19.59-10.81.28-3.9-2.22-7.6-6.36-10.18z"/><path class="cls-8" d="M139.76 132.56c6.36.5 11.78-2.49 12.12-6.68.17-2.19-1.1-4.27-3.26-5.83a53.61 53.61 0 0 1-17.51 9 14.36 14.36 0 0 0 8.65 3.51z"/><path class="cls-7" d="M59.73 132.53c-6.36.53-11.79-2.44-12.13-6.63a6.33 6.33 0 0 1 2.4-5.13 35.91 35.91 0 0 1-4.21-3.8c-3.5 2.56-5.56 6-5.26 9.52.56 6.77 9.34 11.58 19.62 10.73 6.1-.5 11.34-2.89 14.48-6.17-2.3-.46-4.54-1-6.69-1.63a14.62 14.62 0 0 1-8.21 3.11z"/><path class="cls-8" d="M47.6 125.9c.34 4.19 5.77 7.16 12.13 6.63a14.62 14.62 0 0 0 8.18-3.11A55.38 55.38 0 0 1 50 120.77a6.33 6.33 0 0 0-2.4 5.13z"/><path class="cls-7" d="M125.28 73.89c6.11 0 11.35-2.44 13.6-5.93q-2.28-1.24-4.77-2.34c-1 2.61-4.56 4.55-8.83 4.55-5 0-9.14-2.7-9.14-6a4.83 4.83 0 0 1 1.8-3.56q-2.79-.55-5.7-.94a7.29 7.29 0 0 0-1.74 4.5c0 5.36 6.62 9.72 14.78 9.72z"/><path class="cls-8" d="M116.14 64.14c0 3.33 4.09 6 9.14 6 4.27 0 7.83-1.94 8.83-4.55a76.9 76.9 0 0 0-16.17-5 4.83 4.83 0 0 0-1.8 3.55z"/><path class="cls-7" d="M74.85 73.89c8.16 0 14.78-4.36 14.78-9.75a7.27 7.27 0 0 0-1.8-4.57q-2.94.38-5.76.92A4.87 4.87 0 0 1 84 64.14c0 3.33-4.09 6-9.14 6-4.38 0-8-2-8.93-4.75-1.66.72-3.26 1.49-4.78 2.31 2.16 3.64 7.46 6.19 13.7 6.19z"/><path class="cls-8" d="M74.85 70.17c5.05 0 9.14-2.7 9.14-6a4.87 4.87 0 0 0-1.92-3.65 77.81 77.81 0 0 0-16.15 4.93c.89 2.69 4.55 4.72 8.93 4.72z"/></g></g></svg>