<svg xmlns="http://www.w3.org/2000/svg" viewBox="0 0 199.5 199.51"><defs><style>.cls-3{fill:#eac311}.cls-4{fill:#ffe217}.cls-5{fill:#b48205}.cls-6{fill:#f5f5f5}</style></defs><g id="Calque_2" data-name="Calque 2"><g id="Layer_1" data-name="Layer 1"><path fill="#5a5b52" d="M0 0h199.5v199.5H0z"/><path fill="#282828" d="M199.5 100.5l-50.24-50.24L39.82 159.69l39.81 39.81H199.5v-99z"/><path class="cls-3" transform="rotate(-44.94 73.4403993 113.44805965)" d="M72.7 110.08h1.51v6.74H72.7z"/><path class="cls-4" transform="rotate(-45.07 70.11993644 110.1151897)" d="M69.38 108.8h1.51v2.66h-1.51z"/><path class="cls-4" transform="rotate(-44.95 67.92889714 112.321586)" d="M67.18 111h1.51v2.66h-1.51z"/><path class="cls-4" d="M73.11 118.57l8.71 8.71 1.88 1.88 16.3 16.31 1.06-1.07-16.3-16.3-1.88-1.88-8.71-8.71-1.06 1.06zM75.31 116.37l8.71 8.71 1.88 1.88 16.3 16.3 1.07-1.06-16.3-16.3-1.89-1.88-8.71-8.72-1.06 1.07z"/><path class="cls-5" d="M76.37 115.3l1.14-1.13-1.67-1.67-3.1-3.1-1.13 1.13 4.76 4.77z"/><path class="cls-3" d="M76.37 115.3l8.71 8.72 1.89 1.88 16.3 16.3 1.14-1.14-16.31-16.3-1.88-1.88-8.71-8.71-1.14 1.13zM78.65 113.03l8.71 8.71 1.88 1.88 16.3 16.3.99-.99-16.3-16.3-1.88-1.88-8.71-8.71-.99.99z"/><path class="cls-5" d="M77.51 114.17l8.71 8.71 1.88 1.88 16.31 16.3 1.13-1.14-16.3-16.3-1.88-1.88-8.71-8.71-1.14 1.14z"/><path class="cls-3" d="M70.46 111.67l4.77 4.77.08-.07-4.77-4.77-.08.07z"/><path class="cls-6" d="M70.54 111.6l-1.88-1.88-1.14 1.14 1.88 1.88 1.06-1.07.08-.07zM75.23 116.44l-1.06 1.07 8.71 8.71 1.88 1.88 16.3 16.3 1.14-1.14-16.3-16.3-1.88-1.88-8.71-8.71-.08.07z"/><path class="cls-3" transform="rotate(-45.07 71.19719734 109.05081378)" d="M70.44 107.73h1.53v2.66h-1.53z"/><path class="cls-3" transform="rotate(-45.05 73.39008698 106.87896718)" d="M72.62 105.54h1.53v2.66h-1.53z"/><path class="cls-5" d="M70.81 107.57l1.87 1.88 1.11-1.1-1.88-1.88z"/><path class="cls-3" transform="rotate(-45.01 82.41737909 104.50581074)" d="M81.66 101.13h1.5v6.74h-1.5z"/><path class="cls-4" transform="rotate(-45.04 79.09170534 101.1792752)" d="M78.33 99.84h1.5v2.66h-1.5z"/><path class="cls-4" transform="rotate(-44.98 76.87459043 103.36853692)" d="M76.13 102.05h1.5v2.66h-1.5z"/><path class="cls-4" d="M82.06 109.62l8.71 8.71 1.88 1.88 16.31 16.3 1.06-1.06-16.3-16.31-1.89-1.88-8.7-8.71-1.07 1.07zM84.26 107.41l8.71 8.72 1.89 1.88 16.3 16.3 1.06-1.07-16.3-16.3-1.88-1.88-8.71-8.71-1.07 1.06z"/><path class="cls-5" d="M85.33 106.35l1.14-1.14-1.68-1.67-3.1-3.1-1.13 1.14 4.77 4.77z"/><path class="cls-3" d="M85.33 106.35l8.71 8.71 1.88 1.88 16.3 16.3 1.14-1.14-16.3-16.29-1.89-1.89-8.7-8.71-1.14 1.14zM87.6 104.08l8.71 8.71 1.88 1.88 16.31 16.3.99-.99-16.3-16.3-1.89-1.88-8.71-8.71-.99.99z"/><path class="cls-5" d="M86.47 105.21l8.7 8.71 1.89 1.89 16.3 16.29 1.14-1.13-16.31-16.3-1.88-1.88-8.71-8.71-1.13 1.13z"/><path class="cls-3" d="M79.42 102.72l4.77 4.77.07-.08-4.76-4.77-.08.08z"/><path class="cls-6" d="M79.5 102.64l-1.89-1.87-1.14 1.13 1.89 1.88 1.06-1.06.08-.08zM84.19 107.49l-1.06 1.06 8.7 8.71 1.89 1.88 16.3 16.31 1.14-1.14-16.3-16.3-1.89-1.88-8.71-8.72-.07.08z"/><path class="cls-3" transform="rotate(-45.04 80.16936754 100.11394509)" d="M79.39 98.77h1.53v2.66h-1.53z"/><path class="cls-3" transform="rotate(-45.09 82.34792678 97.92298548)" d="M81.57 96.59h1.53v2.66h-1.53z"/><path class="cls-5" d="M79.76 98.62l1.88 1.88c0-.06 1.1-1.1 1.1-1.1l-1.88-1.88z"/><path class="cls-3" d="M89.51 92.63l-1.06 1.06 4.77 4.77 1.06-1.07-4.77-4.76z"/><path class="cls-4" transform="rotate(-45.02 88.03144476 92.21066912)" d="M87.29 90.89h1.5v2.66h-1.5z"/><path class="cls-4" transform="rotate(-44.93 85.84104188 94.42671613)" d="M85.09 93.09h1.51v2.66h-1.51z"/><path class="cls-4" d="M91.02 100.66l8.7 8.71 1.89 1.88 16.3 16.31 1.06-1.06-16.3-16.31-1.88-1.88-8.71-8.71-1.06 1.06zM93.22 98.46l8.71 8.71 1.88 1.88 16.3 16.31 1.07-1.07-16.31-16.3-1.87-1.88-8.72-8.72-1.06 1.07z"/><path class="cls-5" d="M94.28 97.39l1.14-1.13-1.67-1.67-3.1-3.1-1.14 1.14 4.77 4.76z"/><path class="cls-3" d="M94.28 97.39l8.72 8.72 1.87 1.88 16.31 16.3 1.13-1.14-16.3-16.3-1.88-1.88-8.71-8.71-1.14 1.13zM96.56 95.12l8.71 8.71 1.88 1.88 16.3 16.31.99-.99-16.3-16.31-1.88-1.88-8.72-8.71-.98.99z"/><path class="cls-5" d="M95.42 96.26l8.71 8.71 1.88 1.88 16.3 16.3 1.14-1.13-16.3-16.31-1.88-1.88-8.71-8.71-1.14 1.14z"/><path class="cls-3" d="M88.37 93.77l4.77 4.76.08-.07-4.77-4.77-.08.08z"/><path class="cls-6" d="M88.45 93.69l-1.88-1.88-1.14 1.14 1.88 1.88 1.06-1.06.08-.08zM93.14 98.53l-1.06 1.07 8.71 8.71 1.88 1.88 16.3 16.31 1.14-1.14-16.3-16.31-1.88-1.88-8.71-8.71-.08.07z"/><path class="cls-3" transform="rotate(-45.02 89.09730966 91.1397022)" d="M88.35 89.82h1.53v2.66h-1.53z"/><path class="cls-3" transform="rotate(-44.91 91.29242066 88.96322702)" d="M90.53 87.63h1.53v2.66h-1.53z"/><path class="cls-5" d="M88.71 89.67l1.88 1.88 1.1-1.11-1.88-1.88z"/><path class="cls-4" d="M145.99 49.96l3.57 3.56 12.12 12.12 1.48-1.48-28.1-28.1-1.49 1.49 12.42 12.41zM64.19 131.77l-20.8 20.8 3.56 3.56 5.39-5.39 7.54-7.55 7.87-7.86 22.73-22.74-3.56-3.56-22.73 22.74z"/><path class="cls-3" d="M121.64 82.05h-.56a14.84 14.84 0 0 0-11.43 4.3l-.84.84L86.92 109 74 129.07l39.21-39.21a9.83 9.83 0 0 1 13.9 13.9l-22.72 22.74-22.74 22.73a9.83 9.83 0 0 1-13.9-13.9l-7.87 7.86a14.85 14.85 0 0 0 25.33 9.6L108 130.06l22.73-22.73a14.83 14.83 0 0 0-9-25.28zM136 44.22a6.59 6.59 0 0 1 .75.65c5.33 5.32 1.88 17.89-7.58 31.18 14.54-10.76 27.58-15.33 32.52-10.4l-12.13-12.13L146 50l-12.43-12.46a9.08 9.08 0 0 1 2.43 6.68z"/><path class="cls-5" d="M36.89 154.09l8.81 8.81a1.9 1.9 0 0 0 0-2.67l-6.14-6.14a1.88 1.88 0 0 0-2.67 0zM39.56 151.42l8.81 8.81a1.88 1.88 0 0 0 0-2.67L47 156.13l-3.56-3.56-1.16-1.15a1.88 1.88 0 0 0-2.72 0zM67.3 150.08a11.23 11.23 0 0 1-2.57-11.72l-3.32 3.31a13.6 13.6 0 0 0 4.15 9.75 12 12 0 0 0 16.86 0 11.5 11.5 0 0 0 1.75-2.29c-.21.24-.41.48-.65.71a11.47 11.47 0 0 1-16.22.24z"/><path class="cls-4" d="M128.5 89a11.25 11.25 0 0 0-11.72-2.58c3.71-3.19 9.47-2.42 13.06.84 4.88 4.42 4.52 12.33 0 16.86a11.59 11.59 0 0 1-2.29 1.75c.24-.21.48-.42.71-.65A11.47 11.47 0 0 0 128.5 89z"/><path class="cls-6" d="M69.75 126.2l-24.58 28.15-1.78-1.78 26.36-26.37z"/><path class="cls-4" d="M45.15 163.27a2.13 2.13 0 0 0 .55-.37l-8.81-8.81a1.87 1.87 0 0 0-.38.55zM36.89 156.76L43 162.9a1.86 1.86 0 0 0 1.46.54l-8.14-8.15a1.91 1.91 0 0 0 .57 1.47zM39.56 154.09l6.14 6.14a1.9 1.9 0 0 0 1.46.54L39 152.62a1.91 1.91 0 0 0 .56 1.47zM39.56 151.42a2.08 2.08 0 0 0-.38.55l8.64 8.63a1.84 1.84 0 0 0 .55-.37z"/><path class="cls-6" d="M36.35 155.29l8.14 8.15a1.89 1.89 0 0 0 .66-.17l-8.64-8.63a2.14 2.14 0 0 0-.16.65zM39 152.62l8.14 8.15a1.89 1.89 0 0 0 .66-.17l-8.62-8.6a2.14 2.14 0 0 0-.18.62z"/><path class="cls-4" d="M136.74 44.87a6.59 6.59 0 0 0-.75-.65c0 3.7-1.42 8.38-4.3 13.85A52.21 52.21 0 0 1 123 74.72a62.12 62.12 0 0 1-7 7.84 14.84 14.84 0 0 1 5-.56h.56c2.52-2.17 5-4.17 7.52-6 9.54-13.24 12.99-25.81 7.66-31.13z"/><path d="M123 74.72a52.21 52.21 0 0 0 8.65-16.65c-4.29 8.14-11.82 18-22.88 29.07l.84-.84a14.71 14.71 0 0 1 6.39-3.74 62.12 62.12 0 0 0 7-7.84z" fill="#fff"/></g></g></svg>