<svg xmlns="http://www.w3.org/2000/svg" viewBox="0 0 199.5 199.5"><defs><style>.cls-3{fill:#5a5b52}.cls-4{fill:#ff5430}.cls-5{fill:#c60000}.cls-6{fill:#fff}.cls-7{fill:#b7b1a9}</style></defs><g id="Calque_2" data-name="Calque 2"><g id="Layer_1" data-name="Layer 1"><path fill="#ffe217" d="M0 0h199.5v199.5H0z"/><path fill="#eac311" d="M199.5 74.84l-37.6-37.61L41.3 157.82l41.67 41.68H199.5V74.84z"/><path class="cls-3" transform="rotate(-45.01 138.13660561 53.83865865)" d="M137.07 51h2.17v5.68h-2.17z"/><path d="M138.23 49.74l-2.49-2.49a3.59 3.59 0 0 0-3.14 1 3.64 3.64 0 0 0-1 3.15l2.49 2.49z"/><path class="cls-3" transform="rotate(-45.01 145.01601097 46.96081343)" d="M143.94 44.12h2.17v5.68h-2.17z"/><path d="M145.11 42.86l-2.49-2.49a3.66 3.66 0 0 0-4.18 4.18l2.49 2.45z"/><path class="cls-3" transform="rotate(-45.01 146.07366826 61.77905992)" d="M145 58.94h2.17v5.68H145z"/><path d="M150.19 61.7l2.49 2.49a3.66 3.66 0 0 1-4.18 4.17l-2.5-2.49z"/><path class="cls-3" transform="rotate(-44.96 152.98039184 54.89770054)" d="M151.88 52.06h2.17v5.68h-2.17z"/><path d="M157.07 54.82l2.49 2.49a3.67 3.67 0 0 1-4.18 4.18L152.89 59z"/><path class="cls-4" d="M75.55 88.71s-.77 1-.74 1c5.64 4.9 1.72 15.17-6.88 20.49-7.51 4.64-14 2.77-16.82-2.92l-1.23.34c.51 3.05-4.24 6-5.68 7.22-13.27 10.77-12.44 29.2-.09 41.18l70.94-70.94c-5.77-5.76-21.75-15.48-33.9-.41-1.15 1.47-2.4 4.33-5.6 4.04z"/><path class="cls-3" d="M73.49 115.22a2 2 0 0 0-1.62-2.15c-1.14-.37-4.17-.37-7.62 4-2.36 3-4.69 3.67-5.5 3.37a1 1 0 0 1-.62-1.14 2.78 2.78 0 0 1 1.27-1.66 1.43 1.43 0 0 0 1.12.17 1.25 1.25 0 1 0-.61-2.41 1.39 1.39 0 0 0-1 1 3 3 0 0 0-1.54 2.18 2.31 2.31 0 0 0 1.5 2.52 3.26 3.26 0 0 0 2 0 9.87 9.87 0 0 0 4.56-3.16c3.38-3.62 5.8-4.15 6.77-4.05a.72.72 0 0 1 .65 1 3.88 3.88 0 0 1-.74 1 1.43 1.43 0 0 0-.65 0 1.25 1.25 0 1 0 1.63.88.76.76 0 0 0-.06-.18 2.9 2.9 0 0 0 .46-1.37z"/><path class="cls-5" d="M111.42 124.59s-1 .77-1 .74c-4.91-5.65-15.18-1.73-20.49 6.87-4.64 7.51-2.78 14 2.91 16.83l-.33 1.22c-3.05-.51-6.05 4.24-7.22 5.68-10.78 13.27-29.21 12.44-41.18.1l70.94-70.94c5.76 5.76 15.47 21.74.4 33.89-1.45 1.18-4.32 2.41-4.03 5.61z"/><path d="M84.69 126.56a2 2 0 0 1 2.2 1.56c.41 1.12.5 4.16-3.76 7.74-2.92 2.45-3.52 4.8-3.2 5.6a1 1 0 0 0 1.16.58 2.79 2.79 0 0 0 1.63-1.31 1.42 1.42 0 0 1-.22-1.11 1.25 1.25 0 1 1 2.44.53 1.39 1.39 0 0 1-.93 1 3 3 0 0 1-2.13 1.59 2.3 2.3 0 0 1-2.56-1.41 3.23 3.23 0 0 1-.12-2 10 10 0 0 1 3-4.65c3.51-3.49 4-5.93 3.83-6.89a.72.72 0 0 0-1-.63 4 4 0 0 0-1 .78 1.42 1.42 0 0 1 0 .65 1.25 1.25 0 1 1-.93-1.61.76.76 0 0 1 .18.06 2.89 2.89 0 0 1 1.41-.48z"/><path class="cls-3" d="M42.46 155.73l-.46-.46-1.63 1.63 1.43 1.43 1.63-1.63-.97-.97z"/><path transform="rotate(-45 43.4434606 155.72512942)" d="M42.74 155.04h1.39v1.37h-1.39z"/><path d="M44.86 158.13l-.46-.46-.97-.97-1.63 1.63 1.43 1.43 1.63-1.63zM44.4 157.67l.98-.98-.97-.97-.98.98.97.97z"/><path transform="rotate(-45.02 69.06079852 136.07691171)" d="M68.49 132.53h1.17v7.1h-1.17z"/><path class="cls-3" transform="rotate(-45.01 64.04990473 131.05731371)" d="M63.47 127.51h1.17v7.1h-1.17z"/><path class="cls-3" d="M57.16 133.85l-2.67 4.46-1.91 4.82L42 153.75c.67.78 1.39 1.54 2.15 2.28l21.49-21.5-5-5zm6.65 1A.59.59 0 1 1 63 134a.59.59 0 0 1 .83 0 .59.59 0 0 1-.02.82zm-2.34-2.33a.59.59 0 1 1 0-.83.59.59 0 0 1 0 .8z"/><path d="M46.38 158.17L57 147.55l4.82-1.91 4.47-2.64 4.33-3.42-5-5L44.11 156c.73.78 1.49 1.5 2.27 2.17zm18.93-21.84a.59.59 0 0 1 .83.83.6.6 0 0 1-.83 0 .59.59 0 0 1 0-.83zm2.34 2.33a.57.57 0 0 1 .82 0 .59.59 0 0 1 0 .83.57.57 0 0 1-.82 0 .59.59 0 0 1 0-.83zM43.91 128.8a12.75 12.75 0 0 0-8.81-3.73c-.25.61-.46 1.22-.66 1.85a11.44 11.44 0 0 1 6.19 3.19 12.16 12.16 0 0 1-.38 17.18 13.17 13.17 0 0 1-2.63 2c.35.58.71 1.14 1.1 1.7a14.26 14.26 0 0 0 4.77-3.15c5.38-5.36 5.57-13.84.42-19.04z"/><path class="cls-3" d="M69 121.57a1 1 0 0 0-1.35 0 .94.94 0 0 0 0 1.35l4.79 4.79 1.35-1.35z"/><path d="M78.56 132.51a1 1 0 0 0 0-1.36l-4.79-4.79-1.35 1.35 4.79 4.79a1 1 0 0 0 1.35.01z"/><path class="cls-4" d="M155.03 45.1l-2.44-2.43-16.48 15.58 2.89 2.88 16.03-16.03z"/><path class="cls-3" d="M153.31 43.38l-72.83 67.94 4.16 4.17 70.39-70.39-1.72-1.72z"/><path class="cls-5" d="M155.03 45.1l2.43 2.44-15.57 16.48-2.89-2.89 16.03-16.03z"/><path d="M156.75 46.82l-67.93 72.84-4.17-4.18 70.38-70.38 1.72 1.72z"/><path class="cls-6" d="M153.4 44.2l-92.1 87.3c-.2.2-.29.44-.19.55s.34 0 .55-.17l91.94-87.51.4-.37-.19-.18a4.41 4.41 0 0 0-.41.38zM154.21 45l-90.58 88.84c-.2.2-.29.44-.19.55s.35 0 .55-.18l90.43-89 .38-.38-.21-.21z"/><path class="cls-7" d="M155.76 46.59l-87.47 91.92c-.19.21-.27.46-.17.56s.35 0 .55-.2L156 46.77l.36-.39-.19-.19zM155 45.74l-89 90.43c-.21.21-.29.46-.18.56s.35 0 .55-.19L155.17 46l.35-.37-.2-.21z"/><path transform="rotate(-45.03 163.58970542 47.51377404)" d="M162.76 46.72h1.7v1.58h-1.7z"/><path class="cls-5" d="M162.53 45.23l-2.4 2.4 1.12 1.12 1.2-1.2 1.2-1.2-1.12-1.12z"/><path transform="rotate(-45.04 152.60722911 36.52201013)" d="M151.78 35.74h1.69v1.58h-1.69z"/><path class="cls-5" d="M153.78 36.49l-1.2 1.19-1.19 1.2L152.5 40l2.4-2.4-1.12-1.11z"/><path d="M154.9 37.6l-2.4 2.4-1.29 1.29 2.11 2.11 3.69-3.69-2.11-2.11zM160.42 43.12l-3.69 3.69 2.11 2.11 1.29-1.29 2.4-2.4-2.11-2.11z"/><path class="cls-5" d="M153.32 43.4l1.71 1.7 1.7 1.71 3.69-3.69-1.7-1.7-1.71-1.71-3.69 3.69z"/><path class="cls-3" transform="rotate(-44.99 164.78506703 46.31522575)" d="M163.96 45.52h1.69v1.58h-1.69z"/><path class="cls-4" d="M163.65 46.35l1.19-1.2 1.2-1.19-1.11-1.12-2.4 2.39 1.12 1.12z"/><path class="cls-3" transform="rotate(-45.07 153.83734014 35.32761108)" d="M152.98 34.54h1.69v1.58h-1.69z"/><path class="cls-4" d="M154.9 37.6l2.39-2.39-1.11-1.12-1.2 1.2-1.2 1.2 1.12 1.11z"/><path class="cls-3" d="M157.01 39.71l3.69-3.68-2.12-2.11-1.29 1.29-2.39 2.39 2.11 2.11zM162.53 45.23l2.4-2.39 1.29-1.29-2.12-2.11-3.68 3.68 2.11 2.11z"/><path class="cls-4" d="M157.01 39.71l1.71 1.71 1.7 1.7 3.68-3.68-1.7-1.71-1.7-1.7-3.69 3.68z"/><path class="cls-3" d="M40 129.56a11.45 11.45 0 0 0-5.59-2.64 27.17 27.17 0 0 0 3.18 22.39 13.17 13.17 0 0 0 2.63-2 13.67 13.67 0 0 0 1.44-1.72c-.22-.18-.44-.38-.64-.58-3.94-4.01-4.21-10.39-1.02-15.45z"/><path class="cls-7" d="M40.63 130.11c-.19-.19-.39-.37-.6-.55-3.22 5.06-3 11.46 1 15.43.2.2.42.4.64.58a12 12 0 0 0-1.04-15.46zM53.42 143.85L42.7 154.58l.43.48 10.76-10.75 9.82-11.68-1.11-1.1-9.18 12.32zM42.92 156.2l-1.62 1.62-.47-.46 1.63-1.63.46.47z"/><path class="cls-6" transform="rotate(-45.03 64.11981613 131.1336131)" d="M63.52 130.34h1.17v1.56h-1.17z"/></g></g></svg>