<svg xmlns="http://www.w3.org/2000/svg" viewBox="0 0 201.23 200.53"><defs><style>.cls-3{fill:#512100}.cls-4{fill:#ffcca9}.cls-6{fill:#281605}.cls-6,.cls-9{opacity:.1}.cls-7{fill:#3de07e}</style></defs><g id="Calque_2" data-name="Calque 2"><g id="Layer_1" data-name="Layer 1"><path fill="#31ca72" d="M0 0h201.23v200.53H0z"/><path fill="#2ea05c" d="M201.23 80.22l-53.87-53.68-25.41 102.06-43.49 53.55 18.44 18.38h104.33V80.22z"/><path class="cls-3" d="M133.5 137.86l6.89 2.61s4 3.8-1.56 9.56-21.1 21-56.41 32.31c-4 1.11-6.88-.22-2.67-8.41s6.25-15.71 15.11-17.48 38.64-18.59 38.64-18.59z"/><path class="cls-4" d="M92.63 126.33c4.87 2.8 5.78 23.34-2.29 32.11-5.63 6.12-9.72 20.14-9.72 20.14s24.15-3.17 56.53-35.43c-4.61-6.88-2.56-40.79-2.56-40.79z"/><path class="cls-4" d="M61.11 46.69c7.4-24.38 43.81-43 77.32-16.45s8.18 84.36-17.71 90.15c-9.43 2.1-20.24 6.2-29.39 9-12.5 3.82-15.68 1.27-18.64-3.06-2.72-4 2.84-2.65-4.07-10.29-3.46-3.84 1.8-2.23 3.84-2.55 3.43-.55 4.2-1.81 5.87-4.63 1.44-2.43 1.46-5.07-1.27-6.84-3.32-1.53-7.93 2.55-10.74 2s-4.09-1.53-1-5.36C67 96.59 62 97.17 62 97.17s-7.39-.27-2.27-6.17 6.83-14.22 5-16.77-6.95-16.58-3.62-27.54z"/><path d="M66 70.29l2.44 2.8a16.84 16.84 0 0 1 10.92-5.88c7.29-.93 11.31.28 11.31.28l.11-1.74s-10-3.41-20.14-.13S66 70.29 66 70.29z" fill="#421b00"/><path class="cls-6" d="M63.54 70.79s.22 4.75 4.44 3.48 6.67 0 6.67 0l13.21-3.48c2.56-.66 2.78-2.87 3.89 0s12.26 8.64 14.46 9.52 11.52 8.63 11.74 13.5a38.62 38.62 0 0 0 1 6.26c.35 1.5-6.65-2.4-6.08-.72a5.11 5.11 0 0 0 2 3.67c1.88 1.27 4.67.29 4.93.92 1.74 7.58 7.65 15.1 12.62 17.92a3.64 3.64 0 0 0 1.75-3v-14.65l-7.52-39.83-23.58-15.72-39.53 3.54z"/><path class="cls-3" d="M76.17 59.32c-3.1 10.12-15.12 13.74-21.83 15.52 1.54-2.61 2.56-10.7-.57-17.71-2.33-5.21 0-28.69 26.18-39.84 28.81-12.29 46.44-5.82 65.64 8.1 28.12 20.4 5 60.92 16.62 67.55a15 15 0 0 1-7.72-3.57l-5 8.21c-1.59 4.71-1 8 1.19 10.4l-7.54-3.7-7.58 8-3.8 8.2c-2.45-.73-13.28-16.51-8.44-24.47 4.69-7.74-1-3-5.84-6s-9.25-12.82-11.29-21.48a68.75 68.75 0 0 1-3.85 5.8s-9.22-2.74-9.73-11.66C90.33 68 75.25 70 75.25 70s2.17-4 .92-10.68z"/><path class="cls-7" d="M16.9 90.53l26.64 7.76 2.3 1.78-33-5.35 4.06-4.19zM16.68 106.96h24.55v1.78l-26.34 4.08 1.79-5.86zM25.63 123.78l13.56-7.39v1.27l-13.56 13.6v-7.48z"/><path d="M75.9 92.52s4.55-2.89 7.84-2 6.13 4.2 6.13 4.2-2.42-5.59-6.22-6.64S78 89 75.9 92.52z" opacity=".06" fill="#281605"/><path class="cls-6" d="M87.86 130.34S104.63 124.1 110 120s-.4 3.89-3.75 8.76-6.49 17-7.15 19.92-3.09-3.1-2.87-7.52 1.91-11.16-8.37-10.82z"/><path class="cls-3" d="M72.79 77.91s2.14 2.77 7.59 1.39c5.05-1.28 5.6-4 5.6-4l-1.2-.68A5.36 5.36 0 0 1 82.7 77a9.72 9.72 0 0 1-6.09 1.22c-2.4-.46-2.92-1.41-2.92-1.41z"/><path class="cls-4" d="M111.18 83.25s2.67-9.46 10-6.38 3.72 11.87.84 16.87-1.5 8.3-5.5 8.3-3.16-6.31-3.16-6.31a31.73 31.73 0 0 0-.5-6.58c-.4-2.05-1.86-4.21-1.68-5.9z"/><path class="cls-6" d="M114.51 84.61s2.5-5 5-3 .67 7.14 0 8.3-1.17-.64-.5-2.56.23-3.36-1.3-3.3-3.36 2.55-3.2.56z"/><path class="cls-9" d="M138.78 150c5.55-5.76 1.56-9.56 1.56-9.56l-4.85-1.84a13.73 13.73 0 0 0 1.61 4.52 169.6 169.6 0 0 1-27.42 22.49v5.52c16.63-8.63 25.26-17.13 29.1-21.13zM132.35 121.82a22 22 0 0 1-5-4.11 24.91 24.91 0 0 1-6.68 2.64c-3.47.77-7.12 1.82-10.81 3l-.18.27v26.77c11.23-5.46 23.77-12.54 23.77-12.54l2 .77c-1.08-5.11-1.4-12.84-1.4-19.86v.13a3.64 3.64 0 0 1-1.7 2.93z"/><path class="cls-9" d="M109.68 150.36v15.24a169.6 169.6 0 0 0 27.42-22.49 13.73 13.73 0 0 1-1.61-4.52l-2-.77s-12.58 7.08-23.81 12.54zM119.72 103.9c-.26-.62-3 .35-4.93-.91a5.14 5.14 0 0 1-2-3.68c-.12-.37.13-.46.56-.41a11.64 11.64 0 0 1-.09-3.21 31.73 31.73 0 0 0-.5-6.58c-.34-1.75-1.44-3.57-1.64-5.12-.51-.45-1-.89-1.48-1.28v33.81l12.1-6.91a27.35 27.35 0 0 1-2.02-5.71zM109.91 120c3.52-2.69 2.21-.12 0 3.34 3.69-1.15 7.34-2.2 10.81-3a24.91 24.91 0 0 0 6.68-2.64 33.88 33.88 0 0 1-5.57-8.1l-12.1 6.91v3.63z"/><path class="cls-9" d="M131.73 120.43c-.65-.2-1.9-1.46-3.29-3.36-.36.22-.72.44-1.09.64a22 22 0 0 0 5 4.11 3.64 3.64 0 0 0 1.74-3v-3.52zM111.13 83.21a14.18 14.18 0 0 1 .83-2.08 29.48 29.48 0 0 1-2.28-3.51v5.09c.48.39 1 .83 1.48 1.28a3 3 0 0 1-.03-.78zM123.29 96c2.35-3.89 2.15-5.47.75-6.48A33.87 33.87 0 0 1 122 93.7c-2.88 5-1.5 8.3-5.5 8.3-2 0-2.77-1.54-3.07-3.1-.43-.05-.68 0-.56.41a5.14 5.14 0 0 0 2 3.68c1.88 1.26 4.67.29 4.93.91a27.35 27.35 0 0 0 2.06 5.71l2-1.11c-1.86-4.43-2.61-9.18-.57-12.5z"/><path class="cls-9" d="M121.78 109.61a33.88 33.88 0 0 0 5.57 8.1c.37-.2.73-.42 1.09-.64a39.68 39.68 0 0 1-4.71-8.57zM138.38 30.2c27.52 21.77 15.35 64.69-4.23 82.54v2.55l1.42-3.06 7.58-8 7.54 3.7c-2.18-2.35-2.78-5.69-1.19-10.4l5-8.21a15 15 0 0 0 7.72 3.57c-11.62-6.63 11.5-47.15-16.62-67.55C134 17 122.93 11.27 109.68 10.78v6.83c9.32 1.12 19.12 5.01 28.7 12.59z"/><path class="cls-9" d="M133.82 102.74l.72-.41s-.27 4.43-.39 10.41C153.73 94.89 165.9 52 138.38 30.2c-9.58-7.58-19.39-11.47-28.7-12.59v35.45l16.89 11.28z"/><path class="cls-9" d="M133.82 102.74l.27 1.43v8.62l.06-.05c.12-6 .39-10.41.39-10.41zM131.73 120.43l2.36-5.09v-2.55a37.87 37.87 0 0 1-5.65 4.28c1.39 1.93 2.64 3.16 3.29 3.36z"/><path class="cls-9" d="M112 81.13c1.28-2.59 4.11-6.43 9.17-4.3 5.53 2.33 4.82 7.91 2.91 12.65 1.4 1 1.6 2.59-.75 6.48-2 3.36-1.29 8.11.44 12.54l10.09-5.76-7.25-38.4-16.93-11.28v24.56a29.48 29.48 0 0 0 2.32 3.51z"/><path class="cls-9" d="M133.82 102.74l-10.09 5.76a39.68 39.68 0 0 0 4.71 8.57 37.87 37.87 0 0 0 5.65-4.28v-8.62zM109.91 120l-.23.17v3.22l.18-.05c2.26-3.48 3.57-6.05.05-3.34zM111.18 83.25s2.67-9.46 10-6.38 3.72 11.87.84 16.87-1.5 8.3-5.5 8.3-3.16-6.31-3.16-6.31a31.73 31.73 0 0 0-.5-6.58c-.4-2.05-1.86-4.21-1.68-5.9z"/></g></g></svg>