<svg width="577" height="358" fill="none" xmlns="http://www.w3.org/2000/svg"><g filter="url(#filter0_d)"><path d="M7.19942 6.91012l-3.40963.67726s2.20623 7.95782 2.4068 12.35992c0 4.4022 1.8051 7.9578 1.2034 12.6986-.40113 4.9101-1.40397 9.651-.40113 11.5134 1.20339 1.6932 2.80793 3.0477 1.20339 6.0953-1.60453 3.0477-2.00566 7.1112-1.40396 10.1589.6017 3.0477 2.80793 8.2964 1.8051 11.852-1.00284 3.5556-.40114 11.5134-.40114 13.2065 0 1.6932 1.2034 6.6033.80227 9.651-.40113 3.0476-3.0085 10.159-1.40397 13.207 1.60454 3.047 3.81075 6.941 2.40685 10.158-1.60458 3.048-2.60741 7.45-2.40685 12.022 0 4.402-1.00283 10.159-.80226 14.561 0 4.402-3.6102 12.36-1.8051 15.407 1.60453 3.048 4.01133 8.805 3.40963 11.852-.40113 3.048-1.60453 6.604-1.40396 12.36 0 5.757 1.80509 11.852-.80227 17.609-2.60736 5.757-.20057 18.963 1.40396 24.212 1.8051 5.249 2.40685 17.101 2.60735 22.519 0 5.249.2006 9.651.4012 17.609.2005 7.957-3.00854 13.714-2.80798 21.672.20057 7.958 1.8051 13.714.40113 18.455-1.60453 4.91 1.2034 9.312 1.40397 14.561 0 5.249.80228 12.36-.20057 17.609C9.04669 340.815 10 341.5 10 341.5s-2.60001 1.008 2.8153 1.008c5.4153 0 20.0566-1.185 28.0793-1.693 0 0 14.2402.508 23.4662.338 9.2261-.169 21.4606-1.524 26.0737 2.201 4.613 3.725 23.0655 3.387 32.2915 3.387 9.226-.17 24.469-4.064 38.308-.508 13.839 3.555 30.686-1.693 41.316.677 10.831 2.37 27.478-2.878 42.922-3.048 15.243-.169 44.525 2.032 59.768.508 15.244-1.354 42.922-4.233 61.374-3.217 18.452 1.016 21.26-14.053 35.099-10.497 13.839 3.555 16.847-2.709 32.091-2.879 15.243-.169 24.669 5.926 42.921 3.217 18.452-2.709 30.686.847 35.299-1.693 4.613-2.539 12.235 2.371 19.856 1.016 7.622-1.354 24.67 3.386 30.687-1.693 6.017-5.079 2.607-3.73 3.009-7.624.401-3.894 1.002-5.5 1.002-5.5s.201-5.786 0-7c-1.203-7.281 1.806-3.766.803-6.305-1.003-2.54-.803-12.53-.803-15.069 0-2.54 1.404-13.884.201-18.964-1.203-5.079 1.404-11.174 1.203-17.608-.2-6.434-7.22-17.609-6.217-22.688 1.003-5.249 3.008-12.022 1.805-16.763-1.203-4.74.401-12.529.802-15.915.401-3.386-1.203-8.127-1.805-14.561-.602-6.434 3.41-18.963 1.204-24.212-2.207-5.08 1.203-17.27.2-20.318-1.203-3.048-.802-12.868 1.203-22.011 2.006-9.143-9.226-31.6616-9.226-38.7728.201-5.7567 2.808-13.5452 4.212-22.3495 1.404-8.8044-2.808-10.4975.201-16.7622 3.008-6.2646 3.811-18.7939 3.008-24.8892C562.568 6.23286 560.161 2 560.161 2l-9.427.16931s6.017 35.72539-7.621 44.69899c-13.639 8.9737-357.008 8.1271-429.212 7.6192-72.0036-.3386-80.628-2.2011-86.8455-10.8361-6.2176-8.6351-6.6187-37.07991-6.6187-37.07991l-13.23738.33863z" fill="#F3D8D0"/><path d="M12.8152 7.07944l24.2685-.33862.2006 9.82028v.3386c-4.4125 2.709-7.2204 6.9419-7.0198 11.852.2005 7.9578 7.8221 14.3917 17.2487 14.2224 9.4266-.1693 17.0481-6.6033 16.8476-14.561 0-4.9101-3.0085-9.143-7.421-11.6827v-.1693l-.2006-9.9896 34.0963-.33863L100.864 19.1008l.401.3386c-7.421 1.6931-12.8363 7.4498-12.6357 14.2224.2006 7.9578 7.8221 14.3918 17.2487 14.2224 9.427-.1693 17.048-6.6032 16.848-14.561 0-5.7567-4.212-10.6668-10.029-13.0372v-.3387l-.2-11.0054 43.121-.50794.201 12.35994c-5.215 2.5397-8.825 7.2805-8.825 12.8679.201 7.9578 7.822 14.3918 17.249 14.2224 9.426-.1693 17.048-6.6032 16.847-14.561-.2-6.2646-5.014-11.6827-11.833-13.5452v-.1693l-.201-12.19063 51.145-1.1852.2 12.02133v.3386c-6.217 2.2011-10.63 7.4499-10.63 13.5452.201 7.9578 7.822 14.3917 17.249 14.2224 9.427-.1693 17.048-6.6033 16.848-14.561-.201-6.0954-4.613-11.1748-11.031-13.2066v-.3386l-.201-11.85201 39.712-1.86246.201 1.35451.401 9.82026v.5079c-4.212 2.7091-7.02 7.1112-6.819 12.0214.401 7.9577 8.223 14.2224 17.649 13.8837 9.427-.3386 16.848-6.9418 16.447-14.8996-.201-4.9101-3.209-8.9737-7.622-11.5134v-.1693l-.401-9.98959 43.724-1.01588.802 12.69857.401.3386c-7.421 1.8625-12.636 7.6192-12.435 14.3918.401 7.9578 8.223 14.2224 17.65 13.8838 9.426-.3387 16.847-6.9419 16.446-14.8997-.2-5.7567-4.412-10.6668-10.429-12.6986v-.3386l-.401-11.00547 43.121-1.35452.602 12.35999c-5.215 2.5397-8.624 7.4498-8.424 13.0372.401 7.9578 8.224 14.2224 17.65 13.8838 9.427-.3387 16.848-6.9419 16.447-14.8997-.201-6.2646-5.416-11.5134-12.235-13.3758v-.1694l-.401-10.49746 51.144-1.52383.401 9.82029v.3386c-6.217 2.3704-10.429 7.6191-10.228 13.7145.401 7.9577 8.223 14.2224 17.649 13.8837 9.427-.3386 16.848-6.9418 16.447-14.8996-.201-6.0954-4.814-11.1748-11.232-13.0372v-.3387l-.401-10.66679 46.13.16932 1.003.50794.201 9.82023v.3386c-4.413 2.7091-7.221 6.9419-7.02 11.8521.2 7.9577 7.822 14.3917 17.249 14.2224 9.426-.1693 17.048-6.6033 16.847-14.5611 0-4.9101-3.008-9.143-7.421-11.6827v-.1693l-.2-9.98955 18.652-.16931s-1.604 36.23326-2.005 45.88426c-.402 9.6509-2.006 17.9473-3.009 19.3018-1.203 1.5238-1.604 10.1589.201 14.0531 1.805 3.8943 4.212 13.3759 3.81 19.302-.401 5.757-1.203 26.074-.601 63.154.601 37.08 3.409 161.22 3.409 161.22s-5.615.677-15.443 1.016c-9.828.338-15.845 1.523-20.057 1.016-4.212-.678-17.65-4.911-23.266-4.572-5.615.339-9.426 1.016-13.438 1.185-3.81 0-10.228 3.895-16.847 4.402-6.619.508-11.031-2.37-14.842-3.047s-12.034-.17-18.452-.508c-6.418-.339-12.034-3.048-15.845-1.185-3.811 1.862-10.63.846-17.048.169-6.418-.677-18.452-.847-24.469 1.354-6.017 2.202-10.63 1.863-15.444 2.371-4.613.339-8.825 5.926-14.842 6.265-6.017.507-20.457.677-25.271 1.354-4.613.847-10.63 2.709-17.048 3.386-6.418.847-12.836-2.37-18.051-.846-5.014 1.524-10.229.846-19.254 1.354-9.026.508-43.724-.846-51.947-.846-8.223.169-28.681-2.54-35.5-1.016-6.82 1.524-16.647 3.047-23.868 3.894-7.22.847-26.073-1.862-33.093-.339-6.82 1.524-15.444-3.047-20.257-2.709-4.6135.339-22.2633-1.185-31.2888-.338-9.0255.846-16.2459 2.709-28.681 3.217-12.4351.508-23.0651.677-23.0651.677s-2.4068-181.876-2.6074-193.897c-.2006-11.852 0-19.471.8023-22.858.8022-3.217 2.0056-8.296 1.4039-14.053-.6017-5.757-.6017-41.1433-1.0028-55.7044-.2006-14.3917-1.2034-25.2278-2.2062-27.4289-.8023-2.2011-1.8051-7.9578-2.4068-10.1589.6017-2.709.4011-11.51336.4011-11.51336z" fill="#FFF3EF"/><path opacity=".15" fill-rule="evenodd" clip-rule="evenodd" d="M541.976 294.6c.544 2.402-2.719 1.468-4.35 1.468-1.088-.267-.68-1.735-1.088-3.203-.272-.935-.951-2.403.68-2.403.544 0 1.495.801 2.039 1.201 1.223 1.068 1.903 1.735 2.719 2.937zM538.441 284.456c-.815 1.869-3.534.935-4.214-.4-.272 3.07-1.223 6.139-1.903 8.408-1.767 3.737-3.942 6.673-6.933 9.209-1.767 1.468-3.535 3.07-6.117 3.337-2.991.4-5.03-.267-7.205-.401-4.622-.4-7.749-1.601-10.876-3.47-.679-.4-1.495-.934-2.175-1.201-1.359-.534-2.855-1.468-5.03-1.068-2.311.401-5.029 3.737-6.117 5.873-2.447 1.868-3.806 3.47-6.933 3.87-3.535.401-8.292.668-11.827 0-2.447-.4-5.574-1.067-7.749-1.868-.543-.267-.951-.801-1.495-1.068-.544-.267-1.088-.267-1.495-.4-1.904-.934-5.03-3.203-6.118-5.205-.543-.935-.543-2.136-.951-3.337-.408-1.068-1.224-2.135-1.36-3.203-.136-1.068.136-1.869 0-2.803-.136-1.735-1.359-3.203-1.767-5.338 0-1.735 1.088-3.204.408-4.939-.272-.266-.544-.667-.816-1.067-1.495-.401-2.175-.401-3.262-1.335-.272-.267-.68-.667-.952-.801-.272-.267-1.088-2.936-.68-3.203-.408-.801-.815-1.735-1.223-2.669-.272-.267-.952-.134-1.36-.401-.271-.133-.543-.8-.951-1.067-.544-.401-1.496-.534-1.767-1.201-.272-1.068.815-2.536 1.767-3.07.136-.134.408.133.68 0 .543-.134.951-.667 1.223-.667 1.903-.267 2.583 1.334 3.534 2.268.544.534.952.935 1.224 1.335 1.223.534 2.583.267 3.942.534.408-.133.544-.4.952-.534.544 0 .544.267.951.401.544-.401-.271-.668-.271-1.202.271-.534.407-1.334.679-1.868 2.175.133 2.175 2.269 3.943 2.803.543.8 1.087 1.601 1.903 2.002.679-.134 1.495-.267 2.039-.534 3.806.8 5.302 3.87 7.749 6.006 1.903-.267 3.262 0 5.301.533 1.632.534 2.855 2.136 4.622.668 1.224-1.201 2.447-2.269 3.535-3.604.136-1.735 1.359-2.803.408-4.271-.272-.4-.544-.267-.952-.533-.544-.401-.544-1.202-1.087-1.602-.408.534 0 .934-.408 1.335-.952 1.334-5.166-.401-6.526.934-2.854-.801-5.437-1.602-7.612-3.07-3.535.401-5.846-.934-7.749-2.402-.952-1.735-1.631-3.737-2.719-5.339-.136-.667.544-.534.68-.934-.408-2.135.272-3.604 1.359-4.538 1.36-.133 2.311-1.468 3.671-1.334.815.133.951.8 1.903.934.68 1.601 2.175 2.402 2.855 4.004 2.311 1.735 4.758 3.47 6.117 6.006.952.267 1.495 1.067 2.039 1.601-.136.534.272.668.272 1.201.272.134.408.267.544.401 1.903-.801 3.67.267 4.894 1.201-.544-1.602-1.496-3.07-2.039-4.671-.272-.801-.136-2.269-.68-2.803-.68-.534-2.991-.667-3.942-1.201-.816-.401-1.088-.934-1.632-1.735 0-.401.408-.267.408-.668 1.36.267 1.903-.133 3.671 0 0-1.201-.68-2.535-.68-4.137-1.767-1.602-5.71-.934-7.477-2.536 1.088-1.334 4.758 0 6.661-.667.408-1.335-.544-2.002-.815-2.803-3.127-2.669-9.516-2.269-12.779-4.805.272-.934 2.039-.4 3.263-.533 2.719-.801 6.117-.134 8.836-.534.951-.668 1.767-1.468 2.175-2.67 1.223-.4 2.175-1.334 3.127-2.002 1.903-.4 3.262-1.468 5.301-2.001.272-.401.272-1.068.68-1.202.408.134.544.668.68 1.068.544-.133.815 0 1.359 0 .544-.534.544-2.002.272-3.337-.136-.8-1.223-1.868.136-2.001.272 0 .544.133.68.266.815.534 2.039 3.204 3.262 4.004.816.534 2.039.401 3.263.401 0-.267.272-.267.408-.401-.544-2.402-1.632-4.404-2.447-6.673.272-.267.408-.534.815-.667.952.4 1.088 1.601 1.632 2.402.951 1.201 2.039 2.403 2.855 3.871.543.534 1.087 1.067 1.767 1.468.815-2.002-.952-4.271-1.36-6.273-.815-.934-1.767-1.602-2.175-2.936-.408-.267-.815-.401-1.631-.401-1.495-.534-2.311-1.601-3.263-2.802-.136-.935-.407-1.602-1.087-2.002-.136-.801-.272-1.335-.816-1.735-.272-2.002-2.039-3.204-1.495-5.739-.816-.935-.816-3.47-.408-4.805.272-.134.68-.134.816-.4 1.767.266 3.67-.401 6.117-.267.952.667 1.767 1.601 2.719 2.268.408 2.136 1.223 4.138 2.039 6.006-.136 1.335.408 2.002.408 3.204 1.903 4.938 2.719 10.944 4.214 16.282.136 0 .272.134.272.267 1.495-.267 2.311 1.068 3.534.801 1.632-.401.408-4.271 1.496-5.606.136-1.201-.68-1.735-.68-2.936-.68-.667-.952-2.002-1.767-2.669 0-.801-.408-1.335-.408-2.136-1.224-1.334-1.088-4.27-1.903-5.872-.272-4.671-1.903-8.008-4.078-10.677-.544-1.602.543-2.402 1.223-3.07 2.447-.534 5.03-.267 7.477 0 1.223.934 2.175 2.002 2.855 3.337.136 1.468.543 2.803 1.223 3.737.544 4.137 1.224 8.008.68 12.012-.136 1.201-.68 2.268-.952 3.47-.408 2.269-.408 4.537-1.087 6.673-.68.934-1.088 2.135-1.088 3.737.952 1.201 2.991 1.201 4.35.4.952-.667.952-2.002 1.224-3.603.136-1.068.679-2.269.951-3.604.544-3.336 0-7.207.68-9.209 0-.4 0-.534-.272-.667.544-2.002.408-4.404.408-6.807 0-.667-.408-1.334-.408-2.002 0-1.201.272-2.669 0-3.737.408-.667.408-1.468 1.088-1.735.951-.4 3.126.401 3.67 1.201 1.224 1.869-.952 4.805-.408 7.074.408 1.468-.544 3.203-.679 4.671-.136 1.068.135 1.869 0 2.803 0 .267-.136.267-.408.267-.272 4.805-2.719 9.476-2.991 14.814.408.134.816.134 1.223-.133.816-1.602 1.36-3.47 2.311-4.805.136-3.069 1.088-4.671.68-8.008 0-.4-.272-.8-.408-1.201 0-.4.408-.534.408-1.068.136-.667 0-1.601.272-2.268.408-1.202 2.039-2.536 2.991-2.67.68 0 1.359.401 1.767.801.952 1.201 1.359 4.671 1.088 7.341-.272 2.802-1.496 6.272.679 7.34.952 1.602 1.224 5.205.136 6.807-.136.133-.408.267-.544.534-.135.133-.271.534-.407.667-.136.133-.408 0-.408.133-.816 1.068-1.088 2.269-1.767 3.07.679 1.335 1.903 1.602 2.039 3.203 0 1.068-.544 2.403.679 3.07.952-1.068 1.632-2.402 2.719-3.604.272-.4.816-.667 1.088-1.067.136-.267.136-.668.408-1.068.679-1.068 2.039-1.869 2.039-3.337.679.134.815-.667 1.359-.4-.272 4.671-3.806 7.074-5.709 10.544.271.8 1.903 1.334 2.582.4 1.088.267 2.311.267 3.127.801.68 1.468.68 3.603-.408 4.538-.679 0-1.087.267-1.767.133-.272.667-.136 1.068-.136 2.002.952.134 1.631-.801 2.855-.534 1.631.534 1.495 2.269.68 3.604-1.496.4-2.311-.134-3.671-.267-.68.4-.544 1.334-1.087 2.002.407.934 1.495 1.201 2.311 1.735.272.934 1.087 1.334 1.631 2.002.544 1.201 1.223 2.135 2.039 2.802.952 4.004.816 9.61-1.903 11.612 0 .934-.952 1.068-.816 2.135 2.855.267 4.758.935 4.486 3.47zm-10.331-31.898c.272-.8.408-3.069-.408-3.336-.272 1.601.68 3.87-.136 5.872 0 .401.408.401.408.801-.272.667-1.224 2.936-.136 3.604.272-2.136.816-5.072.272-6.941z" fill="#EABA77"/><path opacity=".15" fill-rule="evenodd" clip-rule="evenodd" d="M494.396 301.006c1.631-2.536 3.67 0 4.486 2.402.408 1.201.544 3.203.408 4.271-.136 1.735-2.991 2.803-3.942 1.201-.544-.934-.136-2.269-.272-3.336-.136-1.335-.816-2.803-.68-4.538zM479.035 273.779c-1.088.935-5.03 2.002-4.622-.934.951-.934 1.631-2.669 3.398-2.269 1.088.134 1.632 1.602 1.224 3.203zM469.519 271.377c.544-.267 1.223-.267 1.903-.134 1.359 1.202-.952 2.136-1.903 1.202-.136-.401 0-.668 0-1.068zM464.897 235.475c1.087-1.201 2.854-2.669 5.301-2.002.408.934 1.088 1.735.68 3.07-1.223 1.201-2.311 2.269-4.622 1.468-.68-.534-.951-1.602-1.359-2.536zM470.198 255.895c-.679 0-.951-.4-1.495-.534-.136-.4.136-.4.136-.667.952-.534 1.903.267 1.359 1.201zM467.344 254.027c-.816 0-1.496-.134-1.496-.935.544-.934 2.583.134 1.496.935zM462.586 233.873c-2.04.935-5.03-.133-4.215-2.001.272-.668 1.224-.801 1.496-1.602 1.087-.4 2.855-.4 3.126.667-.271.935-.271 2.002-.407 2.936zM461.226 246.686c-.815 0-1.359 0-1.631-.534-.136-.534.272-.4.408-.801.408.267.815.267 1.223.534-.136.401.136.534 0 .801zM458.779 309.815c.408 1.601-.679 2.936-1.767 2.936-1.223 0-2.447-1.869-2.175-3.203.136-1.068 1.631-2.269 2.719-2.136 1.087.134.951 1.335 1.223 2.403zM432.271 293.398c-1.088.267-1.496 1.202-2.855 1.335.544 2.402-2.991 3.337-3.399 1.468-.136-.934.68-1.601 1.224-2.803.544-1.201.544-2.268 1.631-2.802-1.087-.134-1.495-.801-2.175-1.335-.68-3.47-.951-6.94-.408-10.143.68-2.002 3.263-2.269 4.758-3.337-.679-3.069-1.223-6.139-1.631-9.743-.544-.534-.68-1.868-.272-2.669 1.359-.4 3.263-1.201 3.67.4-.543 3.871-.679 7.741 0 11.345 1.088.4 1.768.934 3.127 1.201.272.134.544.534.816.667.408.134.815.134 1.223.401 1.224.667 1.768 2.002 2.855 2.803 1.088 3.203.952 7.607.544 10.944-.272.4-.816.533-.68 1.201 2.311-.668 3.399 2.135 1.224 3.069-.408.134-.272-.133-.408-.267-.68.267-.816.668-1.224.935-3.534 1.868-6.525-.935-8.02-2.67z" fill="#EABA77"/></g><defs><filter id="filter0_d" x=".789795" y="0" width="576.004" height="357.524" filterUnits="userSpaceOnUse" color-interpolation-filters="sRGB"><feFlood flood-opacity="0" result="BackgroundImageFix"/><feColorMatrix in="SourceAlpha" values="0 0 0 0 0 0 0 0 0 0 0 0 0 0 0 0 0 0 127 0"/><feOffset dx="3" dy="4"/><feGaussianBlur stdDeviation="3"/><feColorMatrix values="0 0 0 0 0 0 0 0 0 0 0 0 0 0 0 0 0 0 0.25 0"/><feBlend in2="BackgroundImageFix" result="effect1_dropShadow"/><feBlend in="SourceGraphic" in2="effect1_dropShadow" result="shape"/></filter></defs></svg>
