<svg width="859" height="978" fill="none" xmlns="http://www.w3.org/2000/svg"><path fill-rule="evenodd" clip-rule="evenodd" d="M225.631.536987L858.427 636.41l-326.42 340.851L7.07449 463.445c-3.99288-3.909-3.49687-10.473 1.03796-13.737L186.726 321.151 68.1473 186.716l8.59-14.321L210.421 304.096l6.671-4.802L53.6303 137.651c13.6118-7.815 26.1853-17.313 37.4238-28.271 17.1799-17.1856 22.9069-31.5071 22.9069-31.5071l113.924-2.1502L225.631.536987z" fill="#000" fill-opacity=".3"/><path d="M277.171 163.802s11.453-2.865 14.316 8.593c2.864 11.457 2.864 28.642-2.863 37.235s-22.907 28.643-31.497 31.508c20.044-2.865 62.994 2.864 85.9 40.1 22.907 37.235 31.497 123.164 20.044 174.722-105.944 95.536-360.78033 33.289-360.78033 0 0 0-14.31667-126.029 28.63333-174.722 37.2233-42.965 65.8567-42.965 65.8567-42.965-8.9979-6.123-16.5016-14.195-21.9542-23.616-5.4527-9.422-8.7142-19.951-9.5425-30.805 0-8.593 2.8633-14.322 14.3167-14.322 0 8.593 0 63.015 71.5833 63.015 6.273 17.356 14.947 33.746 25.77 48.693 13.022-13.917 22.801-30.546 28.633-48.693 19.5 2.434 71.584-7.505 74.447-45.829.61-7.753-.364-15.55-2.863-22.914zM136.867.536948c11.454 8.592882 54.404 20.050052 88.764 0C231.357-2.32734 248.537 89.33 248.537 89.33H108.234S125.414-8.05593 136.867.536948zM96.7807 103.651H259.991l42.95 34.372c-41.759-5.657-83.847-8.528-125.987-8.593-42.14.065-84.2281 2.936-125.9866 8.593l45.8133-34.372z" fill="#fff"/><path d="M176.954 149.48c5.727 0 11.453-14.321 48.677-11.457 37.223 2.864 31.496 17.186 31.496 25.779s-2.863 28.643-31.496 28.643c-37.224 0-42.95-31.508-48.677-31.508-5.727 0-11.453 31.508-51.54 31.508-34.36 0-28.6334-28.643-28.6334-34.372 0-5.728 5.7264-20.05 34.3604-20.05 28.633 0 37.223 11.457 45.813 11.457z" fill="#fff"/><path d="M189.486 365.586c0 40.337 32.7 73.036 73.036 73.036 40.337 0 73.036-32.699 73.036-73.036 0-40.336-32.699-73.035-73.036-73.035-40.336 0-73.036 32.699-73.036 73.035zM171.227 456.881l39.713-39.713" stroke="#612708" stroke-width="10" stroke-linecap="round" stroke-linejoin="round"/><path d="M247.761 387.833v-48.389L292.427 332v48.389" stroke="#612708" stroke-width="7" stroke-linecap="round" stroke-linejoin="round"/><path d="M236.594 399c6.167 0 11.167-5 11.167-11.167s-5-11.166-11.167-11.166-11.167 4.999-11.167 11.166c0 6.167 5 11.167 11.167 11.167zM281.261 391.556c6.167 0 11.166-5 11.166-11.167s-4.999-11.167-11.166-11.167c-6.168 0-11.167 5-11.167 11.167s4.999 11.167 11.167 11.167z" fill="#612708" stroke="#612708" stroke-width="7" stroke-linecap="round" stroke-linejoin="round"/></svg>
