<svg width="688" height="503" fill="none" xmlns="http://www.w3.org/2000/svg"><path opacity=".2" d="M686.54 171.878l-22.271-19.753s-25.973 4.3-62.509 49.45c0 0-33.441 39.708-37.747 49.248 0 0-4.306-6.651-8.074-6.651 0 0-1.211-1.008-6.19 6.651 0 0-4.98 4.569-11.439 7.66 0 0-20.724 7.39-20.118 21.634 0 0-2.49-1.881-11.17 1.881 0 0-31.557-2.486-38.42 3.696 0 0-2.49-9.272-6.796-8.667 0 0 11.775-27.816 17.965-37.088 0 0 7.402-4.972 6.191-9.272-1.952-6.719 14.264-4.3 14.264-4.3l-14.264-16.058 3.7-4.972 8.075 6.182c29.067 12.362 17.965-19.149 17.965-19.149-5.585-10.481 0-13.572 0-13.572 4.979-.604 2.49-9.271 2.49-9.271l11.775.671h.067c11.708.605 11.708-10.548 11.708-10.548l8.679 5.577c8.075 10.481 10.497 5.039 10.497 5.039 3.701-32.721-23.55-59.999-23.55-59.999 4.979-5.576 0-9.272 0-9.272l18.571 2.486c35.325 7.391 34.652 0 34.652 0-8.074-11.153-53.223-29.697-53.223-29.697l.135-2.217c0-9.876-9.959-40.917-9.959-40.917-18.974-45.486-57.933-28.353-77.715-15.655.673-1.545.74-2.889.068-3.762-1.548-2.016-6.191-1.008-10.362 2.217-4.172 3.225-6.392 7.458-4.845 9.473.606.807 1.682 1.075 2.961 1.008-37.546 26.54-11.035 50.592-11.035 50.592 11.775 9.877 11.169 16.663 11.169 16.663-3.566 21.03-26.645 16.662-26.645 16.662-18.571-6.786-17.831-2.821-17.831-2.821-1.211 12.026 14.332 15.318 14.332 15.318v17.335c-6.19-2.352-9.42 3.561-9.42 3.561-3.7-3.091-15.879-9.877-15.879-9.877-20.455-3.091-23.685-11.758-23.685-11.758-3.095 1.881-2.422 6.517-2.422 6.517l-41.852.336-12.313-7.39c0-8.063-18.571-3.091-18.571-3.091-2.489-7.391-27.25-4.905-27.25-4.905 0-5.576-9.286-4.3-9.286-4.3-17.36-13.571-33.441 63.694-33.441 63.694s-27.251 9.205-42.726 3.628c0 0-3.095-4.3-12.381 9.877 0 0-10.496 9.272-44.61 16.662 0 0-38.42 3.696-38.42 48.846 0 0-11.17 45.15-6.19 63.089 0 0 16.08 20.425 38.42 29.697 0 0 7.401 20.425 9.891 24.725 0 0-32.23 0-49.59 1.881 0 0-6.796-5.577-11.102-3.695 0 0-4.306-3.158-7.401-.068l-4.98 7.391h-8.881s-18.908-12.363-26.309 4.905l-7.401 4.098s-4.98 17.469 9.285 30.503c0 0 8.074-.806 9.89 11.556 0 0-1.883 52.474 17.966 64.165 0 0 16.687 22.843 56.991 9.204 0 0 6.796-2.486 3.095-6.853 0 0 6.796-8.667-3.095-17.939 0 0-15.476-14.244-23.55-12.967 0 0-.605-4.367-3.7-4.367l1.883-10.482s34.047-16.662 70.583-10.481c0 0 30.346 14.244 39.026-9.272 0 0 1.211-58.117-6.796-69.875l16.687.605-1.211-29.025s20.454-8.063 22.271 0c0 0-.605 28.42 8.074 37.087 0 0 19.782-5.576 23.55-16.057 0 0 4.307-6.182 6.796-5.577 0 0 22.272 35.274 26.645 50.122 0 0 22.877 53.145 44.611 75.452h10.496s1.817 8.465 9.286 9.675l9.958 7.793s12.986 4.502 21.666-4.77l18.571-16.259-3.701-8.735s3.701-9.339 8.68-9.944c0 0 17.36-9.271 25.367-51.331 0 0 9.891-47.031-14.265-44.545 0 0-2.489 0-8.074 1.814 0 0-19.177-3.695-32.163 28.42 0 0-5.584 15.453-4.306 24.121 0 0-28.462-24.725-42.726-44.546l-19.782-33.997s3.095-9.876 6.19-12.967c0 0 4.979-12.362-9.891-11.153 0 0-5.585-8.667-12.381-5.576 0 0-1.211-12.363-4.979-12.363 0 0-1.211-11.758 6.191-8.062 0 0 18.57 21.634 38.42 3.09 0 0 20.656-10.548 43.332-.605 0 0 26.645 4.3 52.011-17.334 0 0-12.38 56.236-4.979 67.389 0 0 0 9.877 16.687 6.786 0 0 30.346-3.695 43.332 8.063 0 0 9.285 7.39 12.381 4.3 0 0 0 11.757 10.496 17.334 0 0 12.381 9.877 18.571 4.972l19.782-23.516s15.476 4.972 13.592-12.362c0 0 6.19 1.209 8.074-5.577 0 0 7.401.605 11.169-11.153 0 0 12.986 1.209 8.68-19.148l.875-2.486 6.661-8.197 6.661 4.501s27.117-14.243 63.787-59.998c-.134-.336 33.239-44.277 32.028-59.058zm-421.006-.201v-11.825s15.745 11.825 19.647 11.825h-19.647zm407.28 19.014c-44.88 68.464-75.629 81.834-75.629 81.834 12.582-27.547 79.599-94.398 79.599-94.398 2.422 3.359-3.97 12.564-3.97 12.564z" fill="#000" stroke="#000" stroke-width="2" stroke-miterlimit="10" stroke-linecap="round" stroke-linejoin="round"/></svg>