<svg width="414" height="394" fill="none" xmlns="http://www.w3.org/2000/svg"><g opacity=".8"><path fill-rule="evenodd" clip-rule="evenodd" d="M103.56.246L414 190 302 393.225 5.1 218.616c-5.655-3.326-5.966-11.391-.583-15.142l80.913-56.382-54.152-61.393L35 78l72.219 44.263-.206-6.86-82.398-52.224a85.779 85.779 0 0 0 17.177-12.976c7.885-7.888 10.514-14.461 10.514-14.461l52.289-.987L103.56.246z" fill="#000" fill-opacity=".3"/><path d="M127.215 75.181s5.257-1.314 6.572 3.944c1.314 5.259 1.314 13.147-1.315 17.09-2.628 3.945-10.513 13.147-14.456 14.462 9.199-1.315 28.913 1.315 39.426 18.405 10.514 17.091 14.457 56.53 9.2 80.194-48.626 43.849-165.59 15.279-165.59 0 0 0-6.572-57.845 13.142-80.194 17.084-19.72 30.226-19.72 30.226-19.72a33.263 33.263 0 0 1-14.456-24.978c0-3.944 1.314-6.573 6.571-6.573 0 3.944 0 28.922 32.855 28.922a90.628 90.628 0 0 0 11.828 22.349 59.24 59.24 0 0 0 13.142-22.349c8.95 1.118 32.855-3.444 34.17-21.034a26.29 26.29 0 0 0-1.315-10.517zM62.82.246c5.256 3.944 24.97 9.203 40.74 0 2.628-1.314 10.514 40.755 10.514 40.755H49.677S57.563-3.697 62.82.246zM44.42 47.574h74.91l19.714 15.776a435.813 435.813 0 0 0-57.826-3.944 435.79 435.79 0 0 0-57.825 3.944L44.42 47.574z" fill="#fff"/><path d="M81.218 68.608c2.629 0 5.257-6.573 22.342-5.258 17.085 1.314 14.456 7.887 14.456 11.831s-1.314 13.147-14.456 13.147c-17.085 0-19.713-14.461-22.342-14.461-2.628 0-5.257 14.461-23.656 14.461-15.77 0-13.142-13.147-13.142-15.776 0-2.63 2.629-9.202 15.77-9.202 13.143 0 17.086 5.258 21.028 5.258z" fill="#fff"/><path d="M86.97 167.796c0 18.514 15.008 33.522 33.522 33.522s33.522-15.008 33.522-33.522c0-18.513-15.008-33.521-33.522-33.521S86.97 149.283 86.97 167.796zM78.59 209.699l18.227-18.228" stroke="#612708" stroke-width="6" stroke-linecap="round" stroke-linejoin="round"/><path d="M113.717 178.007v-22.209l20.501-3.417v22.209" stroke="#612708" stroke-width="4" stroke-linecap="round" stroke-linejoin="round"/><path d="M108.592 183.133a5.126 5.126 0 1 0-.002-10.252 5.126 5.126 0 0 0 .002 10.252zM129.093 179.716a5.126 5.126 0 1 0-.002-10.252 5.126 5.126 0 0 0 .002 10.252z" fill="#612708" stroke="#612708" stroke-width="4" stroke-linecap="round" stroke-linejoin="round"/></g></svg>