<svg width="31" height="39" fill="none" xmlns="http://www.w3.org/2000/svg"><path opacity=".5" d="M25.5211 23.8803c.1429.2341.3809.3745.6666.3277 1.9998-.1404 3.9996-2.2937 4.6186-4.9151.3809-1.5915.7142-5.5236-4.3329-8.4258C19.3313 6.70097 16.9506.52203 16.9506.47522c-.1429-.327671-.4762-.5149121-.8094-.46810192-.3333.04681022-.619.37448192-.619.70215292V28.14c-1.5237-1.8724-4.0948-3.0894-7.04691-3.0894C3.80912 25.0506 0 28.1868 0 32.0253 0 35.8637 3.80912 39 8.47529 39c4.66621 0 8.47531-3.1363 8.47531-6.9747V11.9437c1.0475 1.0767 2.4759 1.9192 4.0472 2.8554 1.0951.6554 2.1902 1.3107 3.333 2.1065 3.4282 2.4341 1.2379 6.0853 1.1427 6.2257-.0476.2341-.0476.515.0476.749z" fill="#F6AA1C"/></svg>
